
<svg xmlns="http://www.w3.org/2000/svg" version="1.1" xmlns:xlink="http://www.w3.org/1999/xlink" preserveAspectRatio="none" x="0px" y="0px" width="480px" height="360px" viewBox="0 0 480 360">
<defs>
<filter id="Filter_1" x="-20%" y="-20%" width="140%" height="140%" color-interpolation-filters="sRGB">
<feColorMatrix in="SourceGraphic" type="matrix" values="1 0 0 0 0 0 1 0 0 0 0 0 1 0 0 0 0 0 0.08 0" result="result1"/>
</filter>

<filter id="Filter_2" x="-20%" y="-20%" width="140%" height="140%" color-interpolation-filters="sRGB">
<feColorMatrix in="SourceGraphic" type="matrix" values="1 0 0 0 0 0 1 0 0 0 0 0 1 0 0 0 0 0 0.05 0" result="result1"/>
</filter>

<g id="Layer3_0_MEMBER_0_FILL">
<path fill="#B0F4F7" stroke="none" d="
M 480 360
L 480 0 0 0 0 360 480 360 Z"/>
</g>

<g id="Layer3_0_MEMBER_1_FILL">
<path fill="#5F9982" stroke="none" d="
M 458.75 27.35
Q 456.15 27.9 455.1 28 443.85 35.7 437.2 38.8 431.45 41.5 430.2 40.25 429.25 39.3 420.35 38.5
L 411.6 37.85 409.25 44.6
Q 406 51.55 401.6 52.5 396.5 53.6 377.8 41.5 359.4 29.6 355.1 23 351.65 17.7 342.05 31.05 339.05 35.2 335.75 40.8
L 333.1 45.5 324.1 59
Q 321.25 58 318 56.4 311.5 53.15 309.6 50 307.6 46.7 300.75 47.4 295.25 47.9 291.1 50 289 51.05 284 57.45 279 63.8 277.6 64.5 274.85 65.9 263.8 65.9 252.1 65.9 251.1 63.5 250.05 61.1 240.9 56.7 232.2 52.5 229.6 52.5 227.75 52.5 223.5 58.75
L 219.6 65 219.6 138.5 480 138.5 480 46.5
Q 470.9 31.2 463.8 28.15 461.35 27.1 458.75 27.35 Z"/>
</g>

<g id="Layer3_0_MEMBER_2_FILL">
<path fill="#A3A300" stroke="none" d="
M 480 123.5
Q 447.05 123.35 413.1 121.95 356.45 119.55 325.6 114.5 290.75 108.8 237.5 70 219.8 57.1 203.1 42.8 190 31.5 187.6 28.5 186.05 26.55 180.25 25.05 174.15 23.45 166.9 23.3 148.15 22.95 139.1 32 126.5 44.6 87.85 69.1 40.65 99 0 115.2
L 0 340.5 480 340.5 480 123.5 Z"/>
</g>

<g id="Layer3_0_MEMBER_3_FILL">
<path fill="#B3CC00" stroke="none" d="
M 480 113.5
Q 461.65 113.7 425.4 120.35 393.6 126.25 343.55 138 298.45 148.6 259.05 144.6 246.85 143.35 223.65 139.35 198.15 134.95 183.95 133.2 144.8 128.45 97.1 130.2 58.85 131.65 0 138.15
L 0 360 480 360 480 113.5 Z"/>
</g>

<g id="Layer3_1_FILL">
<path fill="#5D5D5D" stroke="none" d="
M 314.25 -17.95
Q 310.6 -11.65 310.1 -4.2 309.15 8.7 317.3 23.35 314.35 27.15 313.25 32.05 312.2 36.9 313.25 41.65 314.05 45.45 317.25 51.5 320.25 57.25 322.8 60.45 326.45 64.95 330.8 66.75 329 70.85 329.1 75.45 329.2 80.05 331.2 84 333.2 88 336.8 90.85 340.4 93.7 344.7 94.7 346.4 95.15 346.45 95.15 347.4 95.45 348 95.95 348.7 96.55 349.1 97.65 349.2 97.9 349.75 99.6 351.05 103.55 354.15 106.2 357.45 109 361.25 108.9 362.5 108.85 364.95 108.65 365.85 108.7 367.05 109.1 367.75 109.3 369.1 109.8 374 111.5 377.65 110.2 379.8 109.4 381.15 107.6 382.6 105.7 382.4 103.6 382.15 101.1 379.75 99.45 377.4 97.9 374.75 98.2 375.2 95.5 373.8 92.95 372.35 90.4 369.8 89.4 373.05 86.95 374.85 84.9 377.3 82.1 378.05 79.2 379.15 75 376.75 70.9 374.4 66.85 370.2 65.7 376.6 61.2 380.25 54.25 384 47.05 383.55 39.6 383.05 31.8 378 25.55 372.8 19.15 365.4 17.65 369.4 11.7 370.85 4.7 372.35 -2.5 370.75 -9.2 369.1 -16.2 364.4 -21.7 359.55 -27.3 352.95 -29.6 347 -31.65 339 -31.25 330.15 -30.9 324.35 -27.9 318.1 -24.6 314.25 -17.95 Z"/>
</g>

<g id="Layer3_2_MEMBER_0_FILL">
<path fill="#000000" fill-opacity="0.4" stroke="none" d="
M 368.85 144.65
Q 368.85 146.9 377.05 148.45 385.25 150 396.8 150 408.4 150 416.55 148.45 424.75 146.9 424.75 144.65 424.75 142.45 416.55 140.9 408.4 139.35 396.8 139.35 385.25 139.35 377.05 140.9 368.85 142.45 368.85 144.65 Z"/>
</g>

<g id="Layer3_2_MEMBER_1_FILL">
<path fill="#8CF7FF" stroke="none" d="
M 423.8 144.35
Q 423.9 144.7 423.9 145 423.95 145 424.05 145 425.8 145 426.7 143.8 426.95 143.4 427.1 142.8 424.55 136.6 419.25 132.45 418.95 134.25 420.3 136.9 420.7 137.55 421.5 138.85 422.25 140.05 422.6 140.9 423.1 142.05 423.8 144.35
M 366.25 125
Q 366.3 125.1 366.4 125.2 381.15 129.45 396.7 129.3 412.85 129.15 427.95 124.8 427.45 123.8 426.95 122.85 425 123.55 422.85 124.1 419.45 124.95 414.65 125.5 398.1 127.55 381.65 126.4 374.7 125.8 370.7 124.65 368.35 123.8 367.55 122.7 366.85 123.85 366.25 125
M 377.6 129.85
Q 376.8 129.3 376 129.2 374 128.8 371.75 130.85 371.65 130.95 371.55 131 369.5 133 367.3 136.3 366.25 137.9 365.7 139.3 365.2 140.55 365.1 141.3 364.9 142.45 365.45 143.25 365.8 143.75 366.3 144.05 366.25 142.05 367.05 140 368 137.5 370 135.45 371.6 133.65 374.15 131.95 375.3 131.15 377.6 129.85 Z"/>

<path fill="#4AF2FD" stroke="none" d="
M 419.35 130.35
Q 417.6 131.8 416.4 134.1 414.85 137.3 414.8 140.85 417.4 142.55 421.2 144.3 422.85 144.95 423.9 145 423.9 144.7 423.8 144.35 423.1 142.05 422.6 140.9 422.25 140.05 421.5 138.85 420.7 137.55 420.3 136.9 418.95 134.25 419.25 132.45 424.55 136.6 427.1 142.8 427.2 142.3 427.2 141.65 427.2 139.75 426.4 137.5 425.9 136 424.65 133.55 423.9 131.9 423.2 131 422.9 130.65 422.65 130.4 421.9 129.65 421 129.2 420.15 129.65 419.35 130.35
M 396.85 132.75
Q 400.1 133.4 400.75 134.15 401.35 134.9 401.35 135.85 401.4 135.65 401.45 135.5 401.75 134.8 401.5 134.1 401.25 133.3 400.4 132.8 399.9 132.5 399.25 132.25 394 130.45 388.65 132 388.15 132.2 387.75 132.35 386.5 132.9 386.2 133.75 385.9 134.55 386.15 135.3 386.4 136.05 387.05 136.55 387.1 136.6 387.15 136.65 387.45 136.7 387.8 136.7 387.3 135.65 387.15 135.1 386.95 134.2 387.7 133.6 388.5 133 391.05 132.55 393.6 132.1 396.85 132.75
M 378.25 130.35
Q 377.95 130.05 377.6 129.85 375.3 131.15 374.15 131.95 371.6 133.65 370 135.45 368 137.5 367.05 140 366.25 142.05 366.3 144.05 366.9 144.3 367.8 144.35 368.25 143.35 369.2 142.2 370.85 140.3 373.85 137.85 375.45 136.5 378.7 133.8 379.55 132.95 379.9 132.5 379.95 132.5 379.95 132.45 378.8 130.9 378.25 130.35
M 394.8 105.5
Q 390.3 105.8 386.4 107 381.2 108.6 377.15 111.8 375.8 112.85 374.55 114 370.35 117.85 367.55 122.7 368.35 123.8 370.7 124.65 374.7 125.8 381.65 126.4 398.1 127.55 414.65 125.5 419.45 124.95 422.85 124.1 425 123.55 426.95 122.85 424.25 117.75 420.5 114.2 417.65 111.45 414.25 109.6 411.55 108.1 408.7 107.15 408.65 107.15 408.6 107.1 402.1 104.95 394.8 105.5
M 394.35 120.45
Q 390.85 121.1 387.2 119.95 383.55 118.85 383.05 115.4 383.95 106.5 394.15 106.7 397.55 107.25 399.5 109.25 401.4 111.2 401.5 113.5 401.55 115.8 399.75 117.8 397.9 119.8 394.35 120.45 Z"/>

<path fill="#55BABD" stroke="none" d="
M 420.5 114.2
Q 420.15 111.9 419.1 110.1 418 108.15 416.35 107.1 414.55 105.9 412.35 105.95 410.2 105.95 408.7 107.15 411.55 108.1 414.25 109.6 417.65 111.45 420.5 114.2
M 375.75 110.35
Q 374.7 112.1 374.55 114 375.8 112.85 377.15 111.8 381.2 108.6 386.4 107 384.1 106.15 382.1 106.4 380.1 106.65 378.5 107.65 376.85 108.65 375.75 110.35
M 387.2 119.95
Q 390.85 121.1 394.35 120.45 397.9 119.8 399.75 117.8 401.55 115.8 401.5 113.5 401.4 111.2 399.5 109.25 397.55 107.25 394.15 106.7 383.95 106.5 383.05 115.4 383.55 118.85 387.2 119.95
M 390.35 110.1
Q 392.25 109.65 394.55 109.85 396.9 110.05 398 110.8 399.1 111.55 399.6 112.7 400.15 113.85 399.8 114.95 399.5 115.95 398.7 116.8 397.9 117.65 396.55 118.35 395.25 119.05 392.25 119.5 389.9 119.55 387.9 118.9 385.9 118.2 385.35 117.15 384.75 116.1 384.8 115.1 384.85 114.2 385.35 113.35 385.6 112.95 385.95 112.6 386.7 111.7 388 110.9 389.05 110.35 390.35 110.1 Z"/>

<path fill="#2EA4A8" stroke="none" d="
M 400.7 138.9
Q 401.05 139.35 401.5 139.8 402.75 141.05 403.6 141.2 404.5 141.35 404.95 140.9 405.35 140.7 405.7 139.45 405.8 138.75 405.9 137.95 405.65 138 405.45 138.05 403.25 138.7 400.7 138.9
M 376 129.2
Q 376.8 129.3 377.6 129.85 377.95 130.05 378.25 130.35 378.8 130.9 379.95 132.45 379.95 132.5 379.9 132.5 379.55 132.95 378.7 133.8 375.45 136.5 373.85 137.85 370.85 140.3 369.2 142.2 368.25 143.35 367.8 144.35 368.7 144.35 370 144.05 375.8 142.55 379.5 139.6 381.1 138.35 381.45 137.3 381.75 136.4 381.45 135.35 383.05 135.8 384.75 136.2 384.8 136.2 384.85 136.2
L 384.95 136.2
Q 386.05 136.45 387.15 136.65 387.1 136.6 387.05 136.55 386.4 136.05 386.15 135.3 385.9 134.55 386.2 133.75 386.5 132.9 387.75 132.35 388.15 132.2 388.65 132 394 130.45 399.25 132.25 399.9 132.5 400.4 132.8 401.25 133.3 401.5 134.1 401.75 134.8 401.45 135.5 401.4 135.65 401.35 135.85 401.35 134.9 400.75 134.15 400.1 133.4 396.85 132.75 393.6 132.1 391.05 132.55 388.5 133 387.7 133.6 386.95 134.2 387.15 135.1 387.3 135.65 387.8 136.7 393.5 137.6 399.35 137.4 399.45 137.4 399.6 137.4 400.3 137.35 401.1 137.35 403.45 137.15 405.8 136.8
L 405.9 136.8
Q 406.85 136.65 407.8 136.5 408.45 136.35 409.15 136.25 409.95 136.1 410.75 135.9 410.15 137.3 413.1 139.6 413.85 140.2 414.8 140.85 414.85 137.3 416.4 134.1 417.6 131.8 419.35 130.35 420.15 129.65 421 129.2 421.9 129.65 422.65 130.4 425.7 128 427.95 124.8 412.85 129.15 396.7 129.3 381.15 129.45 366.4 125.2 368.3 128.4 371.75 130.85 374 128.8 376 129.2 Z"/>

<path fill="#13585B" stroke="none" d="
M 384.95 136.2
Q 386.25 137.8 389.75 138.2 394.45 138.9 397.65 139 399.25 139 400.7 138.9 403.25 138.7 405.45 138.05 405.65 138 405.9 137.95 406.75 137.6 407.2 137.25 407.65 136.9 407.8 136.5 406.85 136.65 405.9 136.8
L 405.8 136.8
Q 403.45 137.15 401.1 137.35 400.3 137.35 399.6 137.4 399.45 137.4 399.35 137.4 393.5 137.6 387.8 136.7 387.45 136.7 387.15 136.65 386.05 136.45 384.95 136.2 Z"/>

<path fill="#0B5456" stroke="none" d="
M 394.55 109.85
Q 392.25 109.65 390.35 110.1 389.05 110.35 388 110.9 386.7 111.7 385.95 112.6 385.6 112.95 385.35 113.35 384.85 114.2 384.8 115.1 384.75 116.1 385.35 117.15 385.9 118.2 387.9 118.9 389.9 119.55 392.25 119.5 395.25 119.05 396.55 118.35 397.9 117.65 398.7 116.8 399.5 115.95 399.8 114.95 400.15 113.85 399.6 112.7 399.1 111.55 398 110.8 396.9 110.05 394.55 109.85 Z"/>
</g>

<g id="Layer3_2_MEMBER_2_FILL">
<path fill="#ADE8E9" stroke="none" d="
M 415.05 108.05
Q 415.25 107.85 415.25 107.55 415.25 107.3 415.05 107.1 414.85 106.85 414.55 106.85 414.3 106.85 414.1 107.1 413.9 107.3 413.9 107.55 413.9 107.85 414.1 108.05 414.3 108.25 414.55 108.25 414.85 108.25 415.05 108.05
M 379.8 109.45
Q 380.05 109.2 380.05 108.9 380.05 108.6 379.8 108.35 379.55 108.15 379.25 108.15 378.9 108.15 378.7 108.35 378.45 108.6 378.45 108.9 378.45 109.2 378.7 109.45 378.9 109.65 379.25 109.65 379.55 109.65 379.8 109.45
M 388.2 108.8
Q 387.6 109.35 387.6 110.25 387.6 111.1 388.2 111.7 388.75 112.25 389.65 112.25 390.5 112.25 391.1 111.7 391.65 111.1 391.65 110.25 391.65 109.35 391.1 108.8 390.5 108.2 389.65 108.2 388.75 108.2 388.2 108.8
M 398.1 111.25
Q 398.4 111 398.4 110.6 398.4 110.25 398.1 110 397.85 109.7 397.5 109.7 397.15 109.7 396.9 110 396.65 110.25 396.65 110.6 396.65 111 396.9 111.25 397.15 111.5 397.5 111.5 397.85 111.5 398.1 111.25 Z"/>
</g>

<g id="Layer3_3_MEMBER_0_FILL">
<path fill="#594D38" stroke="none" d="
M 282.35 -24
L 276.95 -23.35
Q 276.95 -13.8 276.35 0 276.15 4.6 273.45 12.4 269.75 22.15 267.7 27.55
L 267.65 27.5
Q 263.1 19.95 256.7 8.15 250.95 -2.45 250.2 -4.3 249.7 -5.5 246.95 -5.05
L 244.25 -4.3 264.8 35.65 264.8 35.7
Q 260.15 49.5 260.15 60 260.15 74.2 267.95 91.95 272.3 101.85 281.15 119.4 285.95 130.65 286.7 151.5 287.1 163.5 285.95 196.2
L 297.3 198.75
Q 308.85 200.55 309.95 196.8 310.9 193.7 306 168.15 300.3 138.75 299.75 129.6 299.25 121.35 291.8 106.1 288.7 99.85 277.8 80.3
L 277.8 80.2
Q 284.7 64.4 289.45 51.25
L 289.5 51.05
Q 304.8 39.6 310.4 34.2 313.8 30.95 323.15 29 337 26.2 338.75 25.6
L 340.05 25.1
Q 342.55 24.15 344.35 22.95 349.75 19.35 355.1 18 358.7 17.1 358.6 16.75 358.45 16.2 355.5 16.45 352.5 16.7 349 17.6
L 347.85 17.9
Q 343.25 19.25 340.65 21.25 337.05 24 330.6 25.3 325.25 26.4 319 26.35 314.75 26.3 309.75 29.9 300.95 37.05 291.9 44.1
L 291.95 44.05
Q 295.35 33.5 296.15 27.6 296.65 23.75 297.05 18.75
L 297.15 17.25
Q 298.35 -0.05 297.95 -21.6
L 291.95 -21
Q 291.95 0 292.55 15.6 292.9 25 285.45 42.6 281.25 52.55 272.2 69.7
L 272.15 69.65
Q 269.55 64.4 269.15 61.8 268.1 55.55 275.4 36.75 284.05 14.3 284.75 10.8 286.25 3.3 284.45 -11.1 283.55 -18.3 282.35 -24 Z"/>
</g>

<g id="Layer3_3_MEMBER_1_FILL">
<path fill="#FFBC00" stroke="none" d="
M 228.15 -24.2
Q 218.8 -14.8 218.8 -1.55 218.8 9.2 225.25 17.75 231.6 26.1 241.65 29.1 243.6 40.5 252.45 48 261.4 55.65 273.15 55.65 280.6 55.65 287.25 52.35 293.65 49.2 298.2 43.6
L 298.2 43.65
Q 305.05 52.2 314.85 57.05 325 62 336.35 62 356.6 62 370.9 47.75 385.15 33.45 385.15 13.25 385.15 -7 370.9 -21.25 356.6 -35.55 336.35 -35.55 332.15 -35.55 328.3 -34.9 323.75 -45.25 314.35 -51.55 304.65 -58 293 -58 280.75 -58 270.8 -50.95 261.05 -44.1 256.85 -33 253.8 -33.55 250.8 -33.55 237.55 -33.55 228.15 -24.2 Z"/>
</g>

<g id="Layer3_4_MEMBER_0_FILL">
<path fill="#594D38" stroke="none" d="
M 116.4 -5.1
L 113.75 -4.2
Q 115.55 -1.4 119.4 6.3 127.1 21.7 137.45 46.15
L 137.5 46.35 136.55 45.6
Q 124.2 31 106.95 12.25
L 92.15 -3.6 89.75 0 141.95 57
Q 155.5 89.8 160.5 117.25 164.15 137.4 164.15 162.6 164.15 164.95 166.95 166.35 169.55 167.6 172.9 167.45 176.35 167.3 178.1 165.65 180.15 163.75 178.9 160.6 175.75 152.75 173.95 138.75 171.9 123 174.35 116.4 176.6 110.4 185.3 52.5 189.65 23.55 193.55 -4.2 192.05 -6 190.4 -6.95 187.1 -8.9 186.35 -4.8 185.7 -0.95 184.3 9.9 178.75 3.7 172.7 -1.2
L 167.75 -4.8 164.75 -1.8 183.35 16.8 183.3 17.1
Q 173.65 89.65 171.95 97.2 170.3 104.65 168.5 104.8 167.25 104.85 164.15 100.2 162.15 97.2 141.6 46.9 121.1 -3.2 120.35 -4.2 119.25 -5.7 116.4 -5.1 Z"/>
</g>

<g id="Layer3_4_MEMBER_1_FILL">
<path fill="#FF5B00" stroke="none" d="
M 71.15 -26.85
Q 71.15 -18.2 75.6 -10.6 79.9 -3.2 87.45 1.6 83.05 7 80.7 13.45 78.25 20.05 78.25 27.1 78.25 44.95 92.2 57.6 106.2 70.25 125.95 70.25 137.1 70.25 147.2 65.75
L 147.35 65.65
Q 152.25 67.05 157.35 67.05 165.95 67.05 173.4 63.3 180.65 59.65 185.15 53.4
L 185.1 53.35
Q 191.75 58.3 200.3 58.3 210.15 58.3 217.15 52 224.15 45.65 224.15 36.7 224.15 31.65 221.7 27.15 219.3578125 22.855859375 215.25 19.9 223.2 9.9 223.2 -2.45 223.2 -18.35 210.75 -29.55 198.35 -40.8 180.75 -40.8 177.4 -40.8 174.15 -40.35
L 174.05 -40.5
Q 176.35 -45.1 176.35 -50 176.35 -59.45 168.95 -66.1 161.6 -72.8 151.15 -72.8 143.05 -72.8 136.5 -68.5 130.05 -64.35 127.4 -57.65
L 127.35 -57.65
Q 119.15 -61.6 109.6 -61.6 93.65 -61.6 82.4 -51.4 71.15 -41.25 71.15 -26.85 Z"/>
</g>

<g id="Layer3_5_MEMBER_0_FILL">
<path fill="#CCBD00" stroke="none" d="
M 172 189.2
Q 186.15 191.1 201.65 187.2 207.85 185.65 211.7 183.7 215.5 181.75 215.2 180.4 214.45 177.1 203.6 171.5 191.35 165.2 179.4 164.15 164.5 162.9 161.45 162.9 156.05 163 149.15 165.2 144.75 166.65 131.75 168.25 121.5 169.55 120.65 171.2 118.55 176.1 137.4 181.9 153.3 186.75 172 189.2 Z"/>
</g>

<g id="Layer3_5_MEMBER_1_FILL">
<path fill="#FFBC00" stroke="none" d="
M 183.3 177.6
Q 184.45 176.85 184.5 174.9 182.7 174.1 181.55 174.85 180.85 175.3 179.35 177.25 178.65 178.25 178.05 179.1 182.2 178.35 183.3 177.6 Z"/>
</g>

<g id="Layer3_5_MEMBER_2_FILL">
<path fill="#FF5B00" stroke="none" d="
M 186.8 189.1
Q 188.25 188.3 188.95 186
L 189.35 183.8
Q 188.45 183.3 187.3 183 184.95 182.3 183.5 183.1 182.05 183.9 179 187.5 177.45 189.3 176.2 190.95 184.45 190.35 186.8 189.1 Z"/>
</g>

<g id="Layer3_5_MEMBER_3_FILL">
<path fill="#FF8415" stroke="none" d="
M 192.2 170.55
Q 190.8 170.15 188.9 171.2
L 187.3 172.3 188.1 174.1
Q 189.15 176 190.55 176.35 192.8 177 200.05 175.9 194.45 171.15 192.2 170.55 Z"/>
</g>

<g id="Layer3_5_MEMBER_4_FILL">
<path fill="#5FB22F" stroke="none" d="
M 157.45 178.7
Q 158.25 177.9 158.05 177.25 157.85 176.6 156.7 176.45 155.6 176.25 154.4 176.65 153.45 176.95 151.9 178.5 151.1 179.3 150.5 180
L 152.45 180.1
Q 154.55 180.1 155.5 179.8 156.7 179.4 157.45 178.7
M 158.4 174.35
Q 158.3 175 159.2 175.75 160.15 176.45 161.35 176.65 162.9 176.9 166.4 175.55 163.45 173.6 161.9 173.35 160.7 173.1 159.65 173.4 158.55 173.7 158.4 174.35
M 198.35 181.4
Q 199.65 181.1 200 180.15 200.35 179.15 199.5 178 198.65 176.85 197.35 176.45 196.25 176.1 193.65 176.75
L 191.25 177.5 192.85 179.15
Q 194.65 180.9 195.7 181.25 197.05 181.7 198.35 181.4
M 175.25 171
Q 174 171.15 171.6 172.8 170.35 173.6 169.4 174.4
L 171.8 175.2
Q 174.45 176 175.7 175.85 177.3 175.7 178.5 174.95 179.7 174.15 179.65 173.15 179.55 172.15 178.15 171.5 176.8 170.85 175.25 171 Z"/>
</g>

<g id="Fall_svg_Layer_1_ray_0_Layer0_0_FILL">
<path fill="#FCFFBD" stroke="none" d="
M 29.4 0
L 0 0
Q 60.6 175.8 63 180 65.35 182.15 78.35 183.3 90.25 184.35 105.7 184.2 121.4 184.05 131.8 182.7 143.45 181.2 143.4 178.8 143.35 174.55 86.35 86.85 57.9 43 29.4 0 Z"/>
</g>

<g id="Layer3_7_MEMBER_0_MEMBER_0_FILL">
<path fill="#594D38" stroke="none" d="
M 419.75 -19.8
L 405.95 -18
Q 405.25 -14.85 393 15.1 380.9 44.45 379.55 52.2 378.05 60.95 401.55 114.4 414.35 143.55 438.35 195 449.1 218.75 443.95 258.35 442.65 268.35 438.4 291.25 434.6 311.75 433.55 322.2 433.35 324.45 442.15 325.5 450.9 326.55 461.75 325.6 474 324.5 481.8 321.25 491.15 317.45 491.75 311.4 492.55 303.85 492.75 286.45 493.05 266.25 492.3 246.7 490.15 192.6 481.55 177 479.3 172.9 474.55 165.75
L 474.45 165.65 545.75 105
Q 545.45 100.65 544.95 96.9 543.9 89.4 542.75 92.4 541.75 95 511.2 114.45 461.35 146.2 461.15 146.3 456.1775390625 139.1666015625 450.45 130.7
L 450.35 130.55
Q 460.7 97.95 467.1 70.5 477.4 26.15 472.55 13.2 463.55 -10.8 459.95 -19.2
L 441.95 -18
Q 449.5 -4.4 451.4 23.4 453.5 54.25 445.55 75.6 439.9 90.9 434.15 105.25
L 434.1 105.2
Q 413.05 69.9 414.35 52.8
L 419.75 -19.8 Z"/>
</g>

<g id="Layer3_7_MEMBER_0_MEMBER_1_FILL">
<path fill="#D8BE00" stroke="none" d="
M 398.8 -39.2
Q 396.55 -25.85 395.9 -4.9 395.25 15.8 396.55 29.7 398 45.15 401.2 43.05
L 401.45 42.9
Q 413.35 61.6 434.7 72.45 458 84.35 480.5 79.8
L 481.05 85.85
Q 482.45 93.25 486.85 100.2 500.85 122.55 539.2 132 552.3 135.25 568.15 130.55 583.5 126 597.15 115.3 611.25 104.3 619.45 89.9 628.4 74.3 628.4 58 628.4 41.7 622.2 26.75 616.25 12.3 605.35 1 594.45 -10.25 580.2 -16.7 565.5 -23.35 549.3 -23.9
L 549.3 -23.95
Q 541.9 -50.05 520.25 -66.65 498.2 -83.55 470.35 -83.55 450.8 -83.55 433.45 -74.8 416.65 -66.35 405.2 -51.35
L 404.75 -51.7
Q 401.35 -54.3 398.8 -39.2 Z"/>
</g>

<g id="Layer3_7_MEMBER_0_MEMBER_2_FILL">
<path fill="#C0C914" stroke="none" d="
M 369.6 -63.55
Q 345.55 -63.55 328.6 -46.55 311.6 -29.6 311.6 -5.55 311.6 18.45 328.6 35.45 345.55 52.45 369.6 52.45 393.6 52.45 410.6 35.45 427.6 18.45 427.6 -5.55 427.6 -29.6 410.6 -46.55 393.6 -63.55 369.6 -63.55 Z"/>
</g>

<g id="Layer3_7_MEMBER_1_FILL">
<path fill="#5FB22F" stroke="none" d="
M 339.5 338.8
Q 343.45 337.9 344.4 335.05 345.35 332.15 342.8 328.75 340.35 325.45 336.5 324.15 333.35 323.1 325.65 325.1
L 318.55 327.3 323.3 332.2
Q 328.65 337.3 331.75 338.35 335.7 339.7 339.5 338.8
M 383.75 324.45
Q 380.45 324.45 373.75 327.7
L 367.7 330.9 373.75 333.3
Q 380.45 335.65 383.75 335.65 387.9 335.65 391.2 334.1 394.65 332.5 394.65 330.25 394.65 328 391.2 326.2 387.8 324.4 383.75 324.45
M 398.25 314.7
Q 397.7 313 394.7 312.55 391.75 312.05 388.7 313.05 386.25 313.85 382.05 317.9
L 378.4 321.8 383.45 322.1
Q 389.05 322.2 391.5 321.35 394.55 320.35 396.6 318.4 398.8 316.35 398.25 314.7 Z"/>
</g>

<g id="Layer3_7_MEMBER_2_FILL">
<path fill="#FF5B00" stroke="none" d="
M 476.45 328.55
Q 478.15 327.35 478 323.4
L 477.5 319.7
Q 476 318.75 474.2 318 470.55 316.55 468.85 317.7 467.15 318.9 464.55 324.75 463.25 327.7 462.3 330.4
L 468.35 330.15
Q 474.75 329.7 476.45 328.55
M 330.45 327
Q 328.7 326.45 326.5 326.3 322.15 326 320.05 327.95 317.95 329.9 314.5 337.45 312.75 341.25 311.45 344.65
L 318.8 342.15
Q 326.6 339.25 328.7 337.3 330.8 335.35 330.85 331
L 330.45 327 Z"/>
</g>

<g id="Layer3_7_MEMBER_3_FILL">
<path fill="#FF8415" stroke="none" d="
M 427 332.4
Q 425.15 331.25 421.85 332.15
L 418.9 333.3 419.2 336.4
Q 419.85 339.75 421.75 340.9 424.75 342.8 436.05 343.9 434.55 341.5 432.65 338.85 428.9 333.6 427 332.4
M 361.35 323.25
Q 357.05 317 354.9 315.45 352.8 313.9 349.05 314.35
L 345.7 315.1 346.05 318.5
Q 346.8 322.2 348.95 323.75 351.1 325.3 358.35 327.4 362 328.45 365.2 329.2 363.5 326.4 361.35 323.25 Z"/>
</g>

<g id="Layer3_7_MEMBER_4_FILL">
<path fill="#B58018" stroke="none" d="
M 304.3 337.5
Q 305 334.5 302.45 330.6
L 299.7 327.25 295.75 328.95
Q 291.6 331.3 290.9 334.25 290.2 337.2 291.6 346 292.35 350.4 293.2 354.2 295.7 351.2 298.35 347.65 303.6 340.45 304.3 337.5
M 334.3 309.25
Q 332 308.2 324.55 308.2
L 317.55 308.45 321.85 314
Q 326.55 319.8 328.8 320.85 331.1 321.9 334.8 320.15 336.7 319.25 338.1 318.15 338.05 316.35 337.55 314.35 336.55 310.3 334.3 309.25 Z"/>
</g>

<g id="Layer3_7_MEMBER_5_FILL">
<path fill="#B2C11F" stroke="none" d="
M 376.75 344.8
Q 376.7 343 376.2 341 375.2 336.95 372.95 335.9 370.65 334.85 363.2 334.85
L 356.2 335.1 360.5 340.65
Q 365.2 346.45 367.45 347.5 369.75 348.55 373.45 346.8 375.35 345.9 376.75 344.8 Z"/>
</g>

<g id="Layer3_7_MEMBER_6_FILL">
<path fill="#FFBC00" stroke="none" d="
M 328.5 308.85
Q 330.6 307.5 331.5 304.05
L 332 300.9
Q 330.65 300.35 328.9 300.05 325.4 299.45 323.3 300.8 321.2 302.2 316.85 307.85 314.65 310.7 312.9 313.25
L 319.45 311.9
Q 326.4 310.25 328.5 308.85 Z"/>
</g>

<g id="Layer3_7_MEMBER_7_FILL">
<path fill="#D83D0E" stroke="none" d="
M 267 340.1
Q 269.4 339.55 271.25 336.3
L 272.65 333.1
Q 271.55 331.95 270 330.9 266.85 328.8 264.45 329.35 262.1 329.9 256.3 334.1 253.4 336.2 251 338.15
L 257.55 339.45
Q 264.6 340.65 267 340.1
M 374.45 292.9
L 369.6 295.85 375 297.65
Q 380.8 299.35 382.85 299.15 384.9 298.9 386.8 296.3 387.75 294.95 388.25 293.7 387.45 292.6 386.25 291.5 383.8 289.4 381.75 289.6 379.7 289.85 374.45 292.9 Z"/>
</g>

<g id="Layer3_8_MEMBER_0_FILL">
<path fill="#5FB22F" stroke="none" d="
M 449.8 305.25
L 449.75 305.1 449.45 305.15 447.5 306 445.25 307.4 442.8 309.55 439.7 313.25 438.5 315.05 439.1 312.1 439.15 310.25 438.8 307.9 438.2 306.3 437.85 305.7 437.7 305.5 437.6 305.55 437.6 305.8 437.8 307.45 437.45 313.75 436.45 318.85 435.9 320.4 435.85 320.5 435.5 320.8 435.8 315.95 435.5 313.55 434.95 311.95 434.65 311.35 434.5 311.4 434.4 312.05 434.35 316 434.55 321.95 433.55 315.2
Q 433.45 314.55 433.05 313.25
L 432.8 312.3 432.1 310.55 430.5 307.7 428.8 305.65 428.7 305.75 430.45 310.3
Q 430.6 310.85 431.1 311.95
L 431.8 313.7
Q 432.3 314.9 432.45 315.5
L 433 317.4
Q 433.3 318.25 433.45 319.25
L 434.15 323.3 434.05 323.85
Q 433.85 323.25 433.3 322.3 432.65 321.1 431.7 319.85
L 431.05 319.05 430.95 319 430.75 317.9 429.7 314.5 429.45 313.95 429.3 313.95 429.15 314.55 429 316.1 429.05 317.15 429 317.1 428 316.3
Q 427.35 315.8 426.55 315.4
L 425.1 314.8 423.7 314.5 422.5 314.4
Q 421.85 314.4 421.6 314.45
L 420.8 314.55 420.8 314.7 424 315.85 427.3 317.45 428.65 318.3 429.45 318.95 429.5 319 430.65 321.45 429.95 321.1 428.95 320.8 428 320.75 427.1 320.85 426.4 321.05 425.5 321.5 425.5 321.65 425.95 321.8 426.85 321.95 427.15 322.05 429.6 322.4 430.45 322.65 430.2 322.8 429.75 323.2 429.45 323.65 429.35 323.85 429.2 324.35 429.3 324.45 429.65 324.4 430.85 324 431.3 323.9 431.7 323.75
Q 431.95 323.7 432.15 323.75
L 433.45 325.15 434.2 325.8 434.25 325.8 434.35 326 434.5 326 434.7 325.4 434.7 325.3 434.8 325.35 435.05 324.95 436.4 323.15 438.45 321 439.1 321.05 440.2 321.3 440.5 321.45 441.5 321.8 441.6 321.7
Q 441.55 321.5 441.35 321.25
L 441 320.75
Q 440.55 320.3 440.4 320.2
L 439.8 319.85 439.9 319.75
Q 441.9 318.4 444.5 317.65
L 446.75 317.1 446.75 317
Q 445.8 316.95 444.35 317.15 442.95 317.35 441.95 317.7
L 440.65 318.15 438.4 319.3 438.35 319.35 438.35 319.3 438.5 319.1 439.65 317.85
Q 440.1 317.4 441 316.7
L 442.35 315.7 445.05 314.2 447.8 313.15 447.8 313
Q 446.55 313.15 444.85 313.75 443.35 314.25 441.95 314.95
L 440.4 315.85 439.1 316.85 439.1 316.8 440.05 314.95 442.35 311.45 444.2 309.3 447.05 306.75 447.7 306.3 448.8 305.7
Q 449.2 305.45 449.55 305.35
L 449.8 305.25
M 431.75 321.3
L 431.6 321.05 432.85 322.55 433.25 323.15 432.6 322.65 432.35 322.6 432.25 322.45 432.25 322.5 431.75 321.3 Z"/>
</g>

<g id="Layer3_9_MEMBER_0_FILL">
<path fill="#E54B15" stroke="none" d="
M 21.2 -40
Q 13.4 -43.55 4.8 -43.55 -8.6 -43.55 -19.2 -35.45 -29.65 -27.45 -33.25 -14.9 -42.3 -5.85 -47.2 5.85 -52.35 17.95 -52.35 31.25 -52.35 58.25 -33.25 77.35 -14.2 96.4 12.8 96.4 24.65 96.4 35.65 92.3 46.3 88.3 54.95 80.95 66 89.5 79.1 94.1 92.7 98.85 107.15 98.85 124.5 98.85 140.35 92.15 155.65 85.7 167.4 73.9 179.2 62.1 185.65 46.8 192.35 31 192.35 13.65 192.35 -3.7 185.65 -19.55 179.2 -34.8 167.4 -46.6 155.65 -58.4 140.35 -64.85 124.5 -71.55 107.15 -71.55 84.35 -71.55 64.7 -60.25 45.6 -49.25 34.25 -30.45 28.7 -36.6 21.2 -40 Z"/>
</g>

<g id="Layer3_9_MEMBER_1_FILL">
<path fill="#594D38" stroke="none" d="
M 50.75 -15
Q 51.05 -10.2 51.2 -2.9 51.5 11.65 50.75 24 50.1 35.35 45.9 58.25 42.2 78.55 37.3 99.7
L 37.3 99.75
Q 25.45 69.65 15.6 46.3 -0.55 7.9 -3.2 7.2 -6.2 6.45 -4.7 11.85 -3.95 14.55 -2.6 17.4 3.7 27.3 17.85 67.75 30.1 102.9 33.35 115.8 29.25 131.45 29.7 193.7 29.95 225.55 30.95 262.2 30.9 266.65 34.5 269.1 37.6 271.25 42.4 271.4 46.95 271.5 50.45 269.8 54.15 268 54.35 265.2 54.55 262.4 51.7 218.5 48.7 172.3 48.95 156.35
L 56.15 151.8
Q 60.1 149.35 78.25 140.75 103.25 129 113.7 123.75 161.9 99.7 168.35 87.6 172.15 80.45 183.2 52.1 192 29.5 197.75 23.4 199.6 21.55 202.05 19.8
L 202.15 19.7 221.75 18.6
Q 228.25 18.25 235.4 15.7
L 235.45 15.7 236.55 15.25
Q 246.5 11.45 256.7 3.85 261.85 0.05 264.95 -3 264.65 -4.05 263.9 -4.55 262.4 -5.6 260.15 -3 256.45 1.35 242.3 7.35 224.8 14.75 207.65 16.05
L 207.9 15.9
Q 218.2 9.6 236 1.5 244.9 -2.6 251.75 -5.4
L 243.35 -6 209.75 6.6
Q 192.75 9.85 176.15 45.15 171.9 54.25 165 70.9 159.4 83.7 156.35 86.4 152.3 90 134.3 99.65 118.7 108 96.25 119
L 96.15 119.05
Q 99.85 108.8 103.95 105.65 109.9 101.15 115.65 96.15 123.35 89.45 122.8 88.45 122.4 87.65 117.8 91.6 111.6 96.8 108.7 98.45 108.1 98.1 105.7 96.15 105.65 95.9 105.3 95.8
L 103.35 94.05 105.5 88.4 116.7 87.55
Q 117.15 87.55 117.15 87 117.15 86.55 116.6 86.55
L 107.3 87.25 108.05 80.35 108.05 80.3 108.2 78.9 112.95 72.85
Q 113.3 72.55 112.9 72.15 112.45 71.85 112.2 72.25
L 107.3 78.4 107.2 78.65 107.15 79.1 104.6 76.2
Q 104.25 75.85 103.9 76.2 103.75 76.3 103.75 76.55 103.7 76.75 103.85 76.9
L 107 80.45 106.3 87.3 105.1 87.4
Q 104.75 87.4 104.65 87.75
L 102.25 94
Q 102.15 94.4 102.4 94.55 102.5 94.75 104.1 96.1
L 101.15 96.95
Q 100.7 97.15 100.8 97.6 101 98.05 101.45 97.95
L 105 96.9 107.65 99 107.7 99 107.15 99.2
Q 102 101.5 97.55 107.1 92.45 113.5 90.6 121.75
L 90.55 121.8
Q 67.75 132.9 49.85 140.9 50.95 128.95 56.35 87.2 60.65 54.2 60.35 46.2 60.2 42.25 60.5 36.65
L 60.5 36.55
Q 66.25 30.9 88.2 5.9
L 99.95 -7.8
Q 99.35 -8.45 98.15 -8.6 95.8 -8.8 92.75 -6 92.7 -5.95 79.8 5.45 66.5 17.15 61.4 22.1
L 61.4 21.95
Q 62.85 4.1 65.15 -15
L 50.75 -15 Z"/>
</g>

<g id="Layer3_9_MEMBER_2_FILL">
<path fill="#78A078" stroke="none" d="
M 119.75 73.75
Q 118.3 73.25 114.75 73.65
L 111.5 74.15 113.85 76.4
Q 116.45 78.75 117.9 79.25 120.25 80.05 125.1 78.6 122.1 74.55 119.75 73.75 Z"/>
</g>

<g id="Layer3_9_MEMBER_3_FILL">
<path fill="#C4981E" stroke="none" d="
M 122.65 87.8
L 121.65 91.5
Q 121 95.6 122.65 97.45 124.3 99.35 131.15 102.3 134.6 103.75 137.7 104.85 137 101.65 135.95 98.05 133.9 90.9 132.25 89 130.6 87.15 126.45 87.3
L 122.65 87.8 Z"/>
</g>

<g id="Layer3_9_MEMBER_4_FILL">
<path fill="#FF8500" stroke="none" d="
M 101.55 76.25
Q 98.95 75.95 97.5 77 96.05 78.05 93.1 82.35 91.65 84.5 90.45 86.4 99.25 84.35 101.6 82.65 103.05 81.6 103.6 79.05
L 103.8 76.75
Q 102.8 76.4 101.55 76.25 Z"/>
</g>

<g id="Layer3_9_MEMBER_5_FILL">
<path fill="#FF8500" stroke="none" d="
M 20 -28.45
Q 12.8 -30.75 5.15 -30.75 -14.7 -30.75 -28.7 -16.7 -42.75 -2.65 -42.75 17.25 -42.75 37.15 -28.7 51.15 -14.65 65.2 5.2 65.2 13.5 65.2 21.25 62.45 28.8 59.8 35.05 54.8 41 59.05 47.95 61.3 55.15 63.65 62.8 63.65 72.5 63.65 81.45 59.85 90.05 56.2 96.65 49.6 105.1 62.65 118.65 70.2 132.65 78 148.8 78 162.75 78 175.25 72.1 187.35 66.4 196 56.15 201.05 57.2 206.4 57.2 224.2 57.25 238.1 46.1 251.8 35.15 255.8 18.2 265.4 16.2 271.65 8.6 278 0.85 278 -9.15 278 -20.75 269.8 -29 261.6 -37.2 250 -37.2 243.15 -37.2 237.1 -34.05 230.55 -39 222.85 -41.65 214.85 -44.4 206.35 -44.4 192.4 -44.4 180.45 -37.25 165.85 -46 148.8 -46 132.8 -46 118.9 -38.3 105.45 -30.9 97 -18.05 90.3 -24.8 81.6 -28.5 72.65 -32.35 62.75 -32.35 54.45 -32.35 46.7 -29.6 39.15 -26.9 32.9 -21.95 26.95 -26.2 20 -28.45 Z"/>
</g>

<g id="Layer3_9_MEMBER_6_FILL">
<path fill="#FFBC00" stroke="none" d="
M 39.45 -22.15
Q 31.6 -14.3 31.6 -3.2 31.6 7.95 39.45 15.75 47.25 23.6 58.4 23.6 65 23.65 70.8 20.6 76.45 17.6 80.15 12.45 88.45 19.7 98.7 23.6 109.35 27.65 120.8 27.65 146.45 27.65 164.65 9.5 182.8 -8.7 182.8 -34.35 182.8 -60.05 164.65 -78.2 146.45 -96.35 120.8 -96.35 95.1 -96.35 76.95 -78.2 58.8 -60.05 58.8 -34.35 58.8 -32.1 58.95 -29.95
L 58.4 -30
Q 47.25 -30 39.45 -22.15 Z"/>
</g>

<g id="Layer3_10_MEMBER_0_FILL">
<path fill="#C4981E" stroke="none" d="
M 390.65 225.45
Q 398.5 221.9 401.95 218.75 405.4 215.6 401.95 215.1 399.2 214.7 391.8 211.15 377.2 204.2 376.4 203.8 353.6 193.55 337.35 193.9 320.4 194.25 307.4 197.6 294.3 201.75 287.2 203.5 282.7 204.65 287.55 209.55 292.2 214.3 302.65 219.95 313.75 225.95 325.65 229.8 339.3 234.25 349.85 234.4 370.1 234.7 390.65 225.45 Z"/>
</g>

<g id="Layer3_10_MEMBER_1_FILL">
<path fill="#5FB22F" stroke="none" d="
M 350.05 221.3
Q 348.45 223.45 349.05 225.3 349.65 227.05 352.15 227.65 354.55 228.2 357 227.4 359 226.75 362.4 223.5 364.1 221.9 365.4 220.4 363.35 219.65 360.9 219 356 217.75 354.05 218.4 351.6 219.2 350.05 221.3 Z"/>
</g>

<g id="Layer3_10_MEMBER_2_FILL">
<path fill="#B58018" stroke="none" d="
M 343.9 213.05
Q 343.05 215.9 344.05 217.55 345.65 220.2 353.95 225.5 353.1 215.7 351.5 213.05 350.5 211.4 347.6 210.8
L 344.9 210.5 343.9 213.05 Z"/>
</g>

<g id="Layer3_10_MEMBER_3_FILL">
<path fill="#FF8500" stroke="none" d="
M 383 213.2
Q 380.6 212.95 379.25 213.9 377.9 214.9 375.15 218.9
L 372.7 222.65 377.05 221.5
Q 381.65 220.15 383 219.15 384.4 218.15 384.9 215.8
L 385.1 213.65
Q 384.2 213.35 383 213.2 Z"/>
</g>

<g id="Layer3_11_MEMBER_0_FILL">
<path fill="#B2C11F" stroke="none" d="
M 334.15 220.2
Q 334.3 218.1 329.15 213.55 324 208.95 316.15 204.2 296.55 192.25 281.95 191.3 269.45 190.55 252.1 198.45 243.25 202.7 239.3 204.55 232.5 207.75 228.55 208.55 223.55 209.6 222.6 213.35 221.6 217.35 226.05 221.65 237.85 233 273.55 235 308.65 237 323.85 230.85 333.55 226.9 334.15 220.2 Z"/>
</g>

<g id="Layer3_11_MEMBER_1_FILL">
<path fill="#5FB22F" stroke="none" d="
M 268.8 211.65
Q 268.1 212.85 269.45 214.85 270.8 216.7 273.05 218 275.95 219.7 283.35 220.5 282.4 218.75 281.05 216.8 278.4 212.95 276.6 211.9 274.4 210.6 271.95 210.5 269.5 210.4 268.8 211.65
M 287.2 200.4
Q 285.3 200.75 284.95 201.8 284.6 202.85 285.95 204.15 287.3 205.35 289.2 206 291.7 206.85 297.5 206.3 293.45 201.6 290.95 200.75 289.1 200.1 287.2 200.4 Z"/>
</g>

<g id="Layer3_11_MEMBER_2_FILL">
<path fill="#FF8415" stroke="none" d="
M 270 212.85
Q 267.9 212.3 266.7 213 265.5 213.75 263.15 217.1
L 261 220.3 264.8 219.8
Q 268.85 219.15 270.05 218.4 271.25 217.65 271.65 215.55
L 271.85 213.55
Q 271.05 213.15 270 212.85 Z"/>
</g>

<g id="Layer3_11_MEMBER_3_FILL">
<path fill="#FF5B00" stroke="none" d="
M 243.6 212.25
Q 244.65 212.95 248.7 213.25 250.75 213.4 252.55 213.4 250.1 206.55 248.4 205.4 247.35 204.65 245 205.6
L 242.9 206.65 242.6 209
Q 242.55 211.5 243.6 212.25
M 309.55 213.65
Q 309.55 216.45 310.9 217.65 313 219.65 321.8 222.3 318.5 213.7 316.35 211.75 315.05 210.55 312.3 210.7
L 309.8 211.15 309.55 213.65 Z"/>
</g>

<g id="Layer3_11_MEMBER_4_FILL">
<path fill="#C4981E" stroke="none" d="
M 291.15 211.05
Q 293.5 212.2 294.95 211.5 297.25 210.4 302.1 203.65 293.8 203.05 291.5 204.15 290.05 204.85 289.4 207.4 289.1 208.65 289.05 209.8
L 291.15 211.05 Z"/>
</g>

<g id="Layer3_11_MEMBER_5_FILL">
<path fill="#FFBC00" stroke="none" d="
M 286.75 213.15
Q 286.05 211.7 284 210.85
L 282.05 210.3 281.25 212.15
Q 280.55 214.3 281.25 215.75 282.3 218.05 288.15 223.3 287.8 215.45 286.75 213.15 Z"/>
</g>

<g id="Layer3_11_MEMBER_6_FILL">
<path fill="#D83D0E" stroke="none" d="
M 293.9 229.1
Q 295.1 231.25 301.7 235.65 301.2 227.75 299.95 225.6 299.15 224.25 296.85 223.7
L 294.7 223.45 293.85 225.45
Q 293.1 227.75 293.9 229.1
M 283.4 195.6
L 282.15 197 283.1 198.65
Q 284.25 200.3 285.55 200.45 287.65 200.65 293.95 198.35 288.35 194.65 286.25 194.4 284.95 194.25 283.4 195.6 Z"/>
</g>

<g id="Layer3_12_MEMBER_0_FILL">
<path fill="#5FB22F" stroke="none" d="
M 60.65 265.95
Q 57.65 266.45 57.05 268.15 56.5 269.8 58.7 271.85 60.8 273.8 63.85 274.8 67.8 276.1 76.9 275.25 75.3 273.4 73.25 271.35 69.05 267.3 66.6 266.5 63.65 265.45 60.65 265.95
M 112.5 282.2
Q 110 285.55 110.95 288.45 111.9 291.3 115.85 292.25 119.65 293.15 123.55 291.8 126.7 290.75 132.05 285.65
L 136.8 280.75
Q 133.55 279.55 129.7 278.55 122 276.55 118.85 277.6 115 278.85 112.5 282.2
M 112.15 296.7
Q 108.65 294.65 104.85 294.5 100.95 294.3 99.8 296.3 98.7 298.2 100.85 301.35 102.95 304.35 106.55 306.4 109.45 308.05 116.4 309.35 119.9 310.05 122.8 310.35 121.3 307.6 119.2 304.5 115.05 298.35 112.15 296.7 Z"/>
</g>

<g id="Layer3_12_MEMBER_1_FILL">
<path fill="#FF5B00" stroke="none" d="
M 124.45 284.4
Q 124.5 288.75 126.6 290.7 128.7 292.65 136.5 295.55 140.4 297 143.9 298.05 142.6 294.65 140.85 290.9 137.4 283.35 135.3 281.4 133.2 279.45 128.8 279.7
L 124.85 280.4 124.45 284.4 Z"/>
</g>

<g id="Layer3_12_MEMBER_2_FILL">
<path fill="#FF8415" stroke="none" d="
M 28.3 285.85
Q 26.45 287 22.7 292.25 20.8 294.9 19.3 297.3 30.55 296.2 33.6 294.35 35.5 293.2 36.15 289.85
L 36.4 286.7
Q 35.15 286 33.5 285.55 30.2 284.65 28.3 285.85
M 106.3 267.75
Q 102.55 267.35 100.4 268.9 98.25 270.45 93.95 276.7 91.8 279.85 90.1 282.65
L 96.95 280.85
Q 104.25 278.7 106.4 277.15 108.55 275.6 109.3 271.9
L 109.65 268.5
Q 108.2 268 106.3 267.75 Z"/>
</g>

<g id="Layer3_12_MEMBER_3_FILL">
<path fill="#B58018" stroke="none" d="
M 153.85 285.35
Q 150.8 285.1 147.35 288.3 145.6 289.85 144.45 291.5
L 146.75 295.15
Q 149.65 298.85 152.7 299.1 155.75 299.4 164.25 296.65 168.5 295.3 172.1 293.85 168.75 291.85 164.8 289.75 156.9 285.65 153.85 285.35
M 117.2 271.6
L 120.5 273.6
Q 124.25 275.35 126.5 274.3 128.8 273.25 133.5 267.45
L 137.75 261.9
Q 134.5 261.7 130.75 261.65 123.3 261.65 121.05 262.7 118.75 263.75 117.75 267.8 117.25 269.8 117.2 271.6 Z"/>
</g>

<g id="Layer3_12_MEMBER_4_FILL">
<path fill="#B2C11F" stroke="none" d="
M 92.15 288.25
Q 84.65 288.25 82.4 289.3 80.1 290.4 79.1 294.4 78.6 296.4 78.55 298.2
L 81.85 300.2
Q 85.6 302 87.85 300.9 90.15 299.85 94.85 294.05
L 99.15 288.5
Q 95.85 288.3 92.15 288.25 Z"/>
</g>

<g id="Layer3_12_MEMBER_5_FILL">
<path fill="#FFBC00" stroke="none" d="
M 51.25 284.5
Q 50.2 287.85 51.25 290.15 52.3 292.45 57.35 297.5 59.85 300.05 62.15 302.1 62 299 61.65 295.45 60.95 288.35 59.9 286.1 58.85 283.8 55.55 282.45
L 52.5 281.55 51.25 284.5 Z"/>
</g>

<g id="Layer3_12_MEMBER_6_FILL">
<path fill="#D83D0E" stroke="none" d="
M 42.4 313
Q 44.8 313.55 51.85 312.35 55.35 311.75 58.4 311.05 56 309.05 53.1 306.95 47.35 302.75 44.95 302.2 42.55 301.65 39.4 303.75 37.85 304.85 36.75 306
L 38.15 309.15
Q 40.05 312.45 42.4 313
M 54.15 263.15
Q 56 265.75 58.05 266 60.1 266.2 65.9 264.5 68.8 263.6 71.3 262.7 69.1 261.25 66.45 259.75 61.2 256.7 59.15 256.45 57.1 256.25 54.65 258.35 53.45 259.45 52.65 260.55
L 54.15 263.15 Z"/>
</g>

<g id="Fall_svg_Layer_1__Path__0_Layer0_0_FILL">
<path fill="#FCFFBD" stroke="none" d="
M 20.4 0
L 0 0 0 12.6 37 370.75 115.6 371.35 20.4 0 Z"/>
</g>
</defs>

<g transform="matrix( 1, 0, 0, 1, 0.5,-0.3) ">
<use xlink:href="#Layer3_0_MEMBER_0_FILL"/>
</g>

<g transform="matrix( 1, 0, 0, 1, 0.5,-0.3) ">
<use xlink:href="#Layer3_0_MEMBER_1_FILL"/>
</g>

<g transform="matrix( 1, 0, 0, 1, 0.5,-0.3) ">
<use xlink:href="#Layer3_0_MEMBER_2_FILL"/>
</g>

<g transform="matrix( 1, 0, 0, 1, 0.5,-0.3) ">
<use xlink:href="#Layer3_0_MEMBER_3_FILL"/>
</g>

<g transform="matrix( 1, 0, 0, 1, 0,0) ">
<use xlink:href="#Layer3_1_FILL"/>
</g>

<g transform="matrix( 1, 0, 0, 1, 0,0) ">
<use xlink:href="#Layer3_2_MEMBER_0_FILL"/>
</g>

<g transform="matrix( 1, 0, 0, 1, 0,0) ">
<use xlink:href="#Layer3_2_MEMBER_1_FILL"/>
</g>

<g transform="matrix( 1, 0, 0, 1, 0,0) ">
<use xlink:href="#Layer3_2_MEMBER_2_FILL"/>
</g>

<g transform="matrix( 1, 0, 0, 1, 0.5,-0.3) ">
<use xlink:href="#Layer3_3_MEMBER_0_FILL"/>
</g>

<g transform="matrix( 1, 0, 0, 1, 0.5,-0.3) ">
<use xlink:href="#Layer3_3_MEMBER_1_FILL"/>
</g>

<g transform="matrix( 1, 0, 0, 1, 0.5,-0.3) ">
<use xlink:href="#Layer3_4_MEMBER_0_FILL"/>
</g>

<g transform="matrix( 1, 0, 0, 1, 0.5,-0.3) ">
<use xlink:href="#Layer3_4_MEMBER_1_FILL"/>
</g>

<g transform="matrix( 1, 0, 0, 1, 0.5,-0.3) ">
<use xlink:href="#Layer3_5_MEMBER_0_FILL"/>
</g>

<g transform="matrix( 1, 0, 0, 1, 0.5,-0.3) ">
<use xlink:href="#Layer3_5_MEMBER_1_FILL"/>
</g>

<g transform="matrix( 1, 0, 0, 1, 0.5,-0.3) ">
<use xlink:href="#Layer3_5_MEMBER_2_FILL"/>
</g>

<g transform="matrix( 1, 0, 0, 1, 0.5,-0.3) ">
<use xlink:href="#Layer3_5_MEMBER_3_FILL"/>
</g>

<g transform="matrix( 1, 0, 0, 1, 0.5,-0.3) ">
<use xlink:href="#Layer3_5_MEMBER_4_FILL"/>
</g>

<g transform="matrix( 1, 0, 0, 1, 123.5,-3.25) ">
<g transform="matrix( 1, 0, 0, 1, 0,0) ">
<use filter="url(#Filter_1)" xlink:href="#Fall_svg_Layer_1_ray_0_Layer0_0_FILL"/>
</g>
</g>

<g transform="matrix( 1, 0, 0, 1, 0.5,-0.3) ">
<use xlink:href="#Layer3_7_MEMBER_0_MEMBER_0_FILL"/>
</g>

<g transform="matrix( 1, 0, 0, 1, 0.5,-0.3) ">
<use xlink:href="#Layer3_7_MEMBER_0_MEMBER_1_FILL"/>
</g>

<g transform="matrix( 1, 0, 0, 1, 0.5,-0.3) ">
<use xlink:href="#Layer3_7_MEMBER_0_MEMBER_2_FILL"/>
</g>

<g transform="matrix( 1, 0, 0, 1, 0.5,-0.3) ">
<use xlink:href="#Layer3_7_MEMBER_1_FILL"/>
</g>

<g transform="matrix( 1, 0, 0, 1, 0.5,-0.3) ">
<use xlink:href="#Layer3_7_MEMBER_2_FILL"/>
</g>

<g transform="matrix( 1, 0, 0, 1, 0.5,-0.3) ">
<use xlink:href="#Layer3_7_MEMBER_3_FILL"/>
</g>

<g transform="matrix( 1, 0, 0, 1, 0.5,-0.3) ">
<use xlink:href="#Layer3_7_MEMBER_4_FILL"/>
</g>

<g transform="matrix( 1, 0, 0, 1, 0.5,-0.3) ">
<use xlink:href="#Layer3_7_MEMBER_5_FILL"/>
</g>

<g transform="matrix( 1, 0, 0, 1, 0.5,-0.3) ">
<use xlink:href="#Layer3_7_MEMBER_6_FILL"/>
</g>

<g transform="matrix( 1, 0, 0, 1, 0.5,-0.3) ">
<use xlink:href="#Layer3_7_MEMBER_7_FILL"/>
</g>

<g transform="matrix( 1, 0, 0, 1, 0.5,-0.3) ">
<use xlink:href="#Layer3_8_MEMBER_0_FILL"/>
</g>

<g transform="matrix( 1, 0, 0, 1, 0.5,-0.3) ">
<use xlink:href="#Layer3_9_MEMBER_0_FILL"/>
</g>

<g transform="matrix( 1, 0, 0, 1, 0.5,-0.3) ">
<use xlink:href="#Layer3_9_MEMBER_1_FILL"/>
</g>

<g transform="matrix( 1, 0, 0, 1, 0.5,-0.3) ">
<use xlink:href="#Layer3_9_MEMBER_2_FILL"/>
</g>

<g transform="matrix( 1, 0, 0, 1, 0.5,-0.3) ">
<use xlink:href="#Layer3_9_MEMBER_3_FILL"/>
</g>

<g transform="matrix( 1, 0, 0, 1, 0.5,-0.3) ">
<use xlink:href="#Layer3_9_MEMBER_4_FILL"/>
</g>

<g transform="matrix( 1, 0, 0, 1, 0.5,-0.3) ">
<use xlink:href="#Layer3_9_MEMBER_5_FILL"/>
</g>

<g transform="matrix( 1, 0, 0, 1, 0.5,-0.3) ">
<use xlink:href="#Layer3_9_MEMBER_6_FILL"/>
</g>

<g transform="matrix( 1, 0, 0, 1, 0.5,-0.3) ">
<use xlink:href="#Layer3_10_MEMBER_0_FILL"/>
</g>

<g transform="matrix( 1, 0, 0, 1, 0.5,-0.3) ">
<use xlink:href="#Layer3_10_MEMBER_1_FILL"/>
</g>

<g transform="matrix( 1, 0, 0, 1, 0.5,-0.3) ">
<use xlink:href="#Layer3_10_MEMBER_2_FILL"/>
</g>

<g transform="matrix( 1, 0, 0, 1, 0.5,-0.3) ">
<use xlink:href="#Layer3_10_MEMBER_3_FILL"/>
</g>

<g transform="matrix( 1, 0, 0, 1, 0.5,-0.3) ">
<use xlink:href="#Layer3_11_MEMBER_0_FILL"/>
</g>

<g transform="matrix( 1, 0, 0, 1, 0.5,-0.3) ">
<use xlink:href="#Layer3_11_MEMBER_1_FILL"/>
</g>

<g transform="matrix( 1, 0, 0, 1, 0.5,-0.3) ">
<use xlink:href="#Layer3_11_MEMBER_2_FILL"/>
</g>

<g transform="matrix( 1, 0, 0, 1, 0.5,-0.3) ">
<use xlink:href="#Layer3_11_MEMBER_3_FILL"/>
</g>

<g transform="matrix( 1, 0, 0, 1, 0.5,-0.3) ">
<use xlink:href="#Layer3_11_MEMBER_4_FILL"/>
</g>

<g transform="matrix( 1, 0, 0, 1, 0.5,-0.3) ">
<use xlink:href="#Layer3_11_MEMBER_5_FILL"/>
</g>

<g transform="matrix( 1, 0, 0, 1, 0.5,-0.3) ">
<use xlink:href="#Layer3_11_MEMBER_6_FILL"/>
</g>

<g transform="matrix( 1, 0, 0, 1, 0.5,-0.3) ">
<use xlink:href="#Layer3_12_MEMBER_0_FILL"/>
</g>

<g transform="matrix( 1, 0, 0, 1, 0.5,-0.3) ">
<use xlink:href="#Layer3_12_MEMBER_1_FILL"/>
</g>

<g transform="matrix( 1, 0, 0, 1, 0.5,-0.3) ">
<use xlink:href="#Layer3_12_MEMBER_2_FILL"/>
</g>

<g transform="matrix( 1, 0, 0, 1, 0.5,-0.3) ">
<use xlink:href="#Layer3_12_MEMBER_3_FILL"/>
</g>

<g transform="matrix( 1, 0, 0, 1, 0.5,-0.3) ">
<use xlink:href="#Layer3_12_MEMBER_4_FILL"/>
</g>

<g transform="matrix( 1, 0, 0, 1, 0.5,-0.3) ">
<use xlink:href="#Layer3_12_MEMBER_5_FILL"/>
</g>

<g transform="matrix( 1, 0, 0, 1, 0.5,-0.3) ">
<use xlink:href="#Layer3_12_MEMBER_6_FILL"/>
</g>

<g transform="matrix( 1, 0, 0, 1, -2.5,-7.85) ">
<g transform="matrix( 1, 0, 0, 1, 0,0) ">
<use filter="url(#Filter_2)" xlink:href="#Fall_svg_Layer_1__Path__0_Layer0_0_FILL"/>
</g>
</g>
</svg>
