
<svg xmlns="http://www.w3.org/2000/svg" version="1.1" xmlns:xlink="http://www.w3.org/1999/xlink" preserveAspectRatio="none" x="0px" y="0px" width="68px" height="102px" viewBox="0 0 68 102">
<defs>
<g id="maomao_0_Layer0_0_FILL">
<path fill="#FA72B1" stroke="none" d="
M 54.05 65.55
L 51.65 64.95
Q 51.8 67.65 51.9 69.5 52.5 69.5 53.3 69.65 53.55 70 54.05 70.55 54.9 71.7 55.15 71.85 55.95 71.4 56.2 71.85 55.95 71.4 55.15 71.85 54.85 72.15 54.7 72.5 53.7 74.65 56.05 75.4 58.2 75.35 58.8 74.05 59.4 72.75 59.25 71.85 59.05 69.45 56.9 67.7 54.75 65.95 54.05 65.55
M 34.85 96.85
Q 34.9 97.25 35.1 98.25 50.15 97.45 65.2 98.55 66.35 96.55 65.8 94.45 65.2 92.4 63.55 91.2 62.1 90.1 60 89.6 58.35 89.25 56 89.2 50.85 89.05 46.85 90.1
L 46.75 90.1 46.75 90.15
Q 42.95 91.15 40.35 93.25 39.6 93.85 38.9 94.55 39.6 93.85 40.35 93.25 39.3 93.55 38.25 93.8 36.8 94.1 35.05 94.3 35 94.55 34.95 95.2 34.9 95.8 34.85 96.15 34.85 96.5 34.85 96.85
M 9.2 91.25
Q 8.05 91.55 7.2 92.05 6.25 92.55 5.5 93.35 4.75 94.2 4.5 95.2 4.2 96.25 4.5 97.35 4.9 98.45 5.7 99.55 16.55 98.4 27.45 98.4 27.4 97.8 27.45 96.85 27.5 95.9 27.5 94.5 26.25 94.45 24.95 94.35 24.8 94.35 24.6 94.35 24.95 94.7 25.2 94.95 25.4 95.1 25.55 95.2 25.4 95.1 25.2 94.95 24.95 94.7 24.6 94.35 23.65 93.35 22.4 92.55 21.8 92.2 21.15 91.9 20.05 91.4 18.9 91.1 16.5 90.5 13.45 90.65 12.45 90.75 11.3 90.9 10.05 91.05 9.2 91.25
M 3.95 83.75
Q 3.75 84.95 4.2 86.05 4.6 87.05 5.5 87.85 6.35 88.55 7.45 88.9 8.6 89.25 9.8 89.1 10.6 89 11.25 88.6 11 88.3 10.7 88 8.6 85.35 8 81.35 7.65 81.25 7.2 81.2 5.95 81.1 5.05 81.85 4.2 82.55 3.95 83.75
M 29.9 21.45
Q 27.95 21 26 21.15 24.4 21.25 22.75 21.75 21.95 22 20.5 23.2 19 24.35 18.45 25.7 17.9060546875 27.0353515625 18.05 26.9
L 18 26.95 18 27.05
Q 17.7 27.9 17.95 29.7 18.15 31.65 20.05 33 21.9 34.35 25.05 34.85 28.2 35.35 30.65 34.4 33.15 33.5 34.15 32.3 35.2 31.1 35.75 29.9 36.35 28.7 36.25 27.55 36.2 27.05 36.1 26.6 35.9 26.1 35.7 25.5 35.5 25.25 35.35 25.05 35.25 24.9 35.15 24.75 34.35 23.65 33.25 22.85 31.8 21.85 29.9 21.45
M 21.25 24.55
Q 22.35 23.15 24.35 22.75 25.25 22.6 26.15 22.5 27.25 22.45 28.35 22.55 30.35 22.75 32 23.95 32.35 24.2 32.65 24.5 33.7 25.4 33.9 26.25 34.2 27.4 34 28.1 33.8 28.75 33.35 29.5 32.65 30.75 31.35 31.6 30.15 32.4 28.65 32.7 25.95 33.25 22.9 31.95 22.05 31.55 21.5 31.15 20.75 30.65 20.4 30 19.6 28.8 19.9 27.2 20.05 26.6 20.4 25.95 20.75 25.25 21.25 24.55
M 50.15 42.7
Q 50 41.3 49.85 40.1 45.65 38.85 41.2 38.95 36.45 39.05 32.05 40.7 26.5 42.8 23.65 46.55 21.75 49.05 20.65 52.8 19.95 55.25 19.4 59.4 19.85 59.55 20.15 59.9 20.8 60.5 20.7 61.8 20.7 62.65 20.45 64.2 20.35 65 20.2 65.45 20 66.05 19.65 66.5 19.4 66.75 19.05 67 19.05 67.7 19 68.95 18.95 70.05 18.9 70.35 18.8 70.8 18.5 71.6 18.3 72.15 18 72.4 17.6 72.8 16.95 72.85 16.5 72.85 15.75 72.7 15 72.6 14.8 72.25 14.7 72.05 14.7 71.75 14.7 71.35 14.8 70.55 14.9 69.75 14.9 69.35 14.9 68.3 14.6 67.65 13.3 67.15 12.65 65.85 12.05 64.55 12.05 63.1 12.05 61.6 12.95 60.75 13.85 59.9 14.9 59.65 14.65 58.85 13.95 58.05 13.5 57.6 12.2 56.5 9.35 54.1 7.2 51.1 7.2 51.75 7.3 52.4 7.5 54.75 7.95 59.4 8.35 63.55 8.25 66.4
L 10.1 65.35 8.25 66.4
Q 6.2 67.7 2.75 70.05 0.95 73.7 0.4 76.4 -0.2 79.1 0.05 80.05 0.25 80.95 1.5 81.4 2.7 81.8 3.5 81.6 4.25 81.4 4.65 80.85 5.05 80.3 5.2 79.75 5.3 79.2 5.15 78.65 4.95 78.1 4 77.75 3.8 78.15 3.65 78.55 3.8 78.15 4 77.75 4.05 77.7 4.05 77.65 4.1 77.55 4.15 77.5 4.15 77.45 4.2 77.45 5.1 75.8 6.05 73.6
L 7.75 73.1
Q 9.25 72.6 11.25 71.85 11.9 71.6 12.2 71.45 11.9 71.6 11.25 71.85 9.25 72.6 7.75 73.1 7.5 77 7.9 80.65 7.95 81 8 81.35 8.6 85.35 10.7 88 11 88.3 11.25 88.6 12.3 89.75 13.45 90.65 16.5 90.5 18.9 91.1 20.05 91.4 21.15 91.9 21.05 90.4 21.4 88.8 21.95 86.45 23.25 84.35 25.5 80.75 30.1 77.7 35 74.4 39.3 74.05 41.85 73.85 44.2 74.8 46.7 75.75 48.05 77.75 49 79.05 49.4 80.8 49.8 82.45 49.65 84.2 49.45 86.55 48.5 88.65 50.65 86.4 51.45 83.4 52.55 79.4 52.05 71.45 52 71.15 51.9 69.5 51.8 67.65 51.65 64.95 51.4 61.35 51.3 58.7 51.2 56.6 51.1 54.65 50.7 54.75 50.2 54.75 49.2 54.75 48.45 54.45 47.7 54.1 47.7 53.6 47.65 53.1 48.4 52.7 49.1 52.3 50.1 52.3 50.55 52.3 50.95 52.35 50.7 48.4 50.4 45.05 50.3 43.8 50.15 42.7
M 48.75 47.95
Q 49.3 47.95 49.75 48.5 50.15 49.1 50.15 49.9 50.15 50.7 49.75 51.25 49.3 51.8 48.75 51.8 48.15 51.8 47.75 51.25 47.35 50.7 47.35 49.9 47.35 49.1 47.75 48.5 48.15 47.95 48.75 47.95
M 32.55 49.05
Q 33.2 48.35 34.2 48.35 35.15 48.35 35.85 49.05 36.55 49.75 36.55 50.7 36.55 51.65 35.85 52.35 35.15 53.05 34.2 53.05 33.2 53.05 32.55 52.35 31.85 51.65 31.85 50.7 31.85 49.75 32.55 49.05
M 32.05 54.2
Q 34 54.05 35.4 54.4 36.85 54.7 36.9 55.3 36.9 55.9 35.55 56.45 34.2 56.95 32.2 57.1 30.25 57.25 28.85 56.9 27.4 56.55 27.4 55.95 27.35 55.35 28.7 54.85 30.05 54.3 32.05 54.2
M 34.55 61.55
L 34.55 61.5
Q 40.45 61.55 43.05 61.45 43.95 61.4 44.3 61.35 45 61.3 45.55 61.1 45.7 61.05 45.85 60.95 46.15 60.8 46.35 60.55 46.75 60.2 46.75 59.75 46.75 59.4 46.55 59.15 46.35 58.9 46.05 58.75 45.75 58.65 45.45 58.8 45.1 58.9 44.9 59.15 45.1 58.9 45.45 58.8 45.75 58.65 46.05 58.75 46.35 58.9 46.55 59.15 46.75 59.4 46.75 59.75 46.75 60.2 46.35 60.55 46.15 60.8 45.85 60.95
L 43.4 66.55
Q 43 67.6 42.6 68.2 42.05 69 41.35 69.4 40.4 69.85 39.15 69.5 38.05 69.2 37.1 68.35 35.7 67.1 35 65.25 34.3 63.4 34.55 61.55
M 46.1 53.9
Q 46.1 54.1 45.95 54.45 45.5 55.35 44.95 56.1 44.55 56.65 44.2 56.6 43.85 56.55 43.55 56.15 42.55 54.9 42.1 54.05 41.85 53.55 42.3 53.2
L 45.2 53.2
Q 45.8 53.2 45.95 53.4 46.15 53.6 46.1 53.9
M 41.7 23.25
Q 41.15 23.9 40.95 24.7 40.8 25.55 40.95 26.55 41.1 27.2 41.35 27.95 42.35 30.6 44.5 32.55 46.7 34.5 49.4 35.25 49.75 35.35 50.1 35.4 51.8 35.7 52.9 35.1 53.75 34.6 54.2 33.6 54.45 33.05 54.5 32.4 54.55 32.05 54.55 31.65 54.45 29.3 52.85 27.4 51.2 25.5 49 24.2 47 23.05 45.45 22.65 44.2 22.3 43.1 22.45 43 22.45 42.9 22.5 42.25 22.65 41.7 23.25
M 43.25 24.6
Q 43.7 24 45.4 24.2 46.9 24.4 49.45 26.2 52.45 28.3 53.05 31.4 53.05 32.6 52.6 33 51.65 33.8 50.45 33.6 49.65 33.45 48.7 33 48.15 32.75 47.5 32.4 45.8 31.4 44.6 29.85 43.8 28.9 43.45 27.95 43.2 27.35 43.1 26.75 42.85 25.2 43.25 24.6 Z"/>

<path fill="#FB4B78" stroke="none" d="
M 52.65 53.4
Q 52.6 52.9 51.85 52.55 51.45 52.4 50.95 52.35 50.55 52.3 50.1 52.3 49.1 52.3 48.4 52.7 47.65 53.1 47.7 53.6 47.7 54.1 48.45 54.45 49.2 54.75 50.2 54.75 50.7 54.75 51.1 54.65 51.6 54.5 51.95 54.3 52.65 53.9 52.65 53.4
M 35.4 54.4
Q 34 54.05 32.05 54.2 30.05 54.3 28.7 54.85 27.35 55.35 27.4 55.95 27.4 56.55 28.85 56.9 30.25 57.25 32.2 57.1 34.2 56.95 35.55 56.45 36.9 55.9 36.9 55.3 36.85 54.7 35.4 54.4 Z"/>

<path fill="#FFC4DF" stroke="none" d="
M 30.1 77.7
Q 25.5 80.75 23.25 84.35 21.95 86.45 21.4 88.8 21.05 90.4 21.15 91.9 21.8 92.2 22.4 92.55 23.65 93.35 24.6 94.35 24.8 94.35 24.95 94.35 26.25 94.45 27.5 94.5 31.75 94.6 35.05 94.3 36.8 94.1 38.25 93.8 39.3 93.55 40.35 93.25 42.95 91.15 46.75 90.15
L 46.75 90.1 46.85 90.1
Q 47.75 89.4 48.5 88.65 49.45 86.55 49.65 84.2 49.8 82.45 49.4 80.8 49 79.05 48.05 77.75 46.7 75.75 44.2 74.8 41.85 73.85 39.3 74.05 35 74.4 30.1 77.7 Z"/>

<path fill="#2CA49A" stroke="none" d="
M 19.05 67
Q 18.55 67.35 17.75 67.55 16.25 68 15.1 67.8 14.85 67.75 14.6 67.65 14.9 68.3 14.9 69.35 14.9 69.75 14.8 70.55 14.7 71.35 14.7 71.75 14.7 72.05 14.8 72.25 15 72.6 15.75 72.7 16.5 72.85 16.95 72.85 17.6 72.8 18 72.4 18.3 72.15 18.5 71.6 18.8 70.8 18.9 70.35 18.95 70.05 19 68.95 19.05 67.7 19.05 67
M 18.6 61.35
Q 18.4 61 17.85 60.8 16.9 60.45 15.8 60.6 14.7 60.75 13.95 61.35 13.65 61.75 13.4 62.55 13.15 63.35 13.2 63.95 13.3 64.5 13.5 64.9 13.7 65.3 14.05 65.55 14.4 65.75 14.95 65.85 15.95 66.05 16.6 65.95 17.5 65.85 18 65.2 18.15 65 18.3 64.65 18.2 64.6 18.2 64.65
L 17.95 64.05
Q 17.65 63.35 17.85 62.75 17.95 62.25 18.6 61.4
L 18.6 61.35
M 35.15 24.75
Q 35.25 24.9 35.35 25.05 35.7 24.95 35.95 24.9 35.55 24.8 35.15 24.75
M 18 27.05
Q 16.7 27.7 15.5 28.6 12.05 31.1 10 34.35 13.05 31.2 17.3 28.65 17.55 27.9 18 27.05
M 27.85 7.3
Q 28.2 5.5 28.7 3.4 29.2 0.95 27.95 0.25 27.2 -0.2 25.9 0.2 24 0.8 22.4 2.25 20.85 3.55 19.7 5.4 19.15 6.3 18.7 7.3 16.95 11.1 16.8 16 16.65 20.55 18 26.95
L 18.05 26.9
Q 17.9060546875 27.0353515625 18.45 25.7 19 24.35 20.5 23.2 21.95 22 22.75 21.75 24.4 21.25 26 21.15 25.8 17.85 26.5 13.8 26.9 11.4 27.85 7.3
M 43.25 35.8
Q 42.5 35.15 41.4 33.95 40.05 32.5 39.3 31.2 38.8 30.45 38.5 29.6 38.15 29.6 37.7 29.65 37.1 29.7 36.85 29.75 36.8 29.8 36.75 29.8 36.75 30.3 36.7 30.85 36.35 33.1 35.55 34.25 34.8 35.4 33.1 36.5 31.35 37.6 28.9 38.05 26.45 38.5 24.2 38.1 21.9 37.75 20.05 36.65 18.95 35.95 18.25 35.15
L 11.35 40.45
Q 9.4 42.05 8.45 42.95 7.2 44.2 6.5 45.45 6.3 47.65 6.45 50 6.8 50.55 7.2 51.1 9.35 54.1 12.2 56.5 13.5 57.6 13.95 58.05 14.65 58.85 14.9 59.65 16.05 59.3 17.6 59.2 18.45 59.15 19 59.25 19.2 59.3 19.4 59.4 19.95 55.25 20.65 52.8 21.75 49.05 23.65 46.55 26.5 42.8 32.05 40.7 36.45 39.05 41.2 38.95 45.65 38.85 49.85 40.1 50 41.3 50.15 42.7 51.2 41.65 51.15 40.2 51.1 39.2 50.95 38.25 50.65 38.35 50.4 38.35 49.45 38.5 47.95 38.05 46.4 37.6 45.45 37.2 44.4 36.75 43.25 35.8
M 45.75 11.35
Q 46.55 9.2 46.6 7.3 46.55 6.7 46.5 6.15 46.4 5.1 45.9 4.3 45.35 3.4 44.5 3.2 42.8 2.85 41.1 5.25 40.35 6.25 39.7 7.3 35.4 13.9 33.25 22.85 34.35 23.65 35.15 24.75 35.55 24.8 35.95 24.9 36.95 24.7 37.55 24.8 38.1 24.9 38.55 25.25 38.65 25.3 38.75 25.4 39 23.25 40.3 20.75 41 19.35 43.15 16.15 44.95 13.35 45.75 11.35 Z"/>

<path fill="#588371" stroke="none" d="
M 20.45 64.2
Q 20.7 62.65 20.7 61.8 20.8 60.5 20.15 59.9 19.85 59.55 19.4 59.4 19.2 59.3 19 59.25 18.45 59.15 17.6 59.2 16.05 59.3 14.9 59.65 13.85 59.9 12.95 60.75 12.05 61.6 12.05 63.1 12.05 64.55 12.65 65.85 13.3 67.15 14.6 67.65 14.85 67.75 15.1 67.8 16.25 68 17.75 67.55 18.55 67.35 19.05 67 19.4 66.75 19.65 66.5 20 66.05 20.2 65.45 20.35 65 20.45 64.2
M 17.85 60.8
Q 18.4 61 18.6 61.35
L 18.6 61.4
Q 18.65 61.55 18.65 61.7 18.65 61.85 18.65 62.1 18.6 62.8 18.5 63.3 18.5 64.1 18.3 64.65 18.15 65 18 65.2 17.5 65.85 16.6 65.95 15.95 66.05 14.95 65.85 14.4 65.75 14.05 65.55 13.7 65.3 13.5 64.9 13.3 64.5 13.2 63.95 13.15 63.35 13.4 62.55 13.65 61.75 13.95 61.35 14.7 60.75 15.8 60.6 16.9 60.45 17.85 60.8 Z"/>

<path fill="#A32E64" stroke="none" d="
M 18.65 61.7
Q 18.65 61.55 18.6 61.4 17.95 62.25 17.85 62.75 17.65 63.35 17.95 64.05
L 18.2 64.65
Q 18.2 64.6 18.3 64.65 18.5 64.1 18.5 63.3 18.6 62.8 18.65 62.1 18.65 61.85 18.65 61.7 Z"/>

<path fill="#B6306E" stroke="none" d="
M 39.65 27.2
Q 39.5 26.7 39.25 26.05 39.15 25.9 39.05 25.75 38.95 25.6 38.85 25.5 38.8 25.45 38.75 25.4 38.65 25.3 38.55 25.25 38.1 24.9 37.55 24.8 36.95 24.7 35.95 24.9 35.7 24.95 35.35 25.05 35.5 25.25 35.7 25.5 35.9 26.1 36.1 26.6 36.55 27.9 36.65 28.65 36.75 29.2 36.75 29.8 36.8 29.8 36.85 29.75 37.1 29.7 37.7 29.65 38.15 29.6 38.5 29.6 39.15 29.6 39.75 29.9 39.85 29.9 39.9 29.85 39.95 29.8 39.95 29.7 40.05 29.35 40.05 29 40.05 28.75 39.95 28.25 39.85 27.7 39.65 27.2
M 17.4 28.6
Q 17.35 28.65 17.3 28.65 13.05 31.2 10 34.35 9 35.4 8.1 36.5 6.3 38.8 5.55 41 4.65 43.65 5.4 45.9 5.55 46.4 5.85 46.35 6.05 46.3 6.25 45.95 6.35 45.7 6.5 45.45 7.2 44.2 8.45 42.95 9.4 42.05 11.35 40.45
L 18.25 35.15 19.05 34.35
Q 19 34.25 18.95 34.2 18.05 33.1 17.6 31.65 17.15 30.15 17.4 28.6
M 17.95 29.7
Q 17.7 27.9 18 27.05 17.55 27.9 17.3 28.65 17.35 28.65 17.4 28.6 17.15 30.15 17.6 31.65 18.05 33.1 18.95 34.2 19 34.25 19.05 34.35
L 18.25 35.15
Q 18.95 35.95 20.05 36.65 21.9 37.75 24.2 38.1 26.45 38.5 28.9 38.05 31.35 37.6 33.1 36.5 34.8 35.4 35.55 34.25 36.35 33.1 36.7 30.85 36.75 30.3 36.75 29.8 36.75 29.2 36.65 28.65 36.55 27.9 36.1 26.6 36.2 27.05 36.25 27.55 36.35 28.7 35.75 29.9 35.2 31.1 34.15 32.3 33.15 33.5 30.65 34.4 28.2 35.35 25.05 34.85 21.9 34.35 20.05 33 18.15 31.65 17.95 29.7
M 40.95 24.7
Q 41.15 23.9 41.7 23.25 42.25 22.65 42.9 22.5 42.2 22.6 41.6 22.9 39.9 24.2 38.85 25.5 38.95 25.6 39.05 25.75 39.15 25.9 39.25 26.05 39.5 26.7 39.65 27.2 39.85 27.7 39.95 28.25 40.05 28.75 40.05 29 40.05 29.35 39.95 29.7 39.95 29.8 39.9 29.85 39.85 29.9 39.75 29.9 39.15 29.6 38.5 29.6 38.8 30.45 39.3 31.2 40.05 32.5 41.4 33.95 42.5 35.15 43.25 35.8 44.4 36.75 45.45 37.2 46.4 37.6 47.95 38.05 49.45 38.5 50.4 38.35 50.65 38.35 50.95 38.25 51.45 38.1 52.1 37.85 53.7 35.9 54.1 34.35 54.55 32.7 54.5 32.4 54.45 33.05 54.2 33.6 53.75 34.6 52.9 35.1 51.8 35.7 50.1 35.4 49.75 35.35 49.4 35.25 46.7 34.5 44.5 32.55 42.35 30.6 41.35 27.95 41.1 27.2 40.95 26.55 40.8 25.55 40.95 24.7 Z"/>

<path fill="#B0C6BD" stroke="none" d="
M 24.35 22.75
Q 22.35 23.15 21.25 24.55 20.75 25.25 20.4 25.95 20.05 26.6 19.9 27.2 19.6 28.8 20.4 30 20.75 30.65 21.5 31.15 22.05 31.55 22.9 31.95 25.95 33.25 28.65 32.7 30.15 32.4 31.35 31.6 32.65 30.75 33.35 29.5 33.8 28.75 34 28.1 34.2 27.4 33.9 26.25 33.7 25.4 32.65 24.5 32.35 24.2 32 23.95 30.35 22.75 28.35 22.55 27.25 22.45 26.15 22.5 25.25 22.6 24.35 22.75
M 45.4 24.2
Q 43.7 24 43.25 24.6 42.85 25.2 43.1 26.75 43.2 27.35 43.45 27.95 43.8 28.9 44.6 29.85 45.8 31.4 47.5 32.4 48.15 32.75 48.7 33 49.65 33.45 50.45 33.6 51.65 33.8 52.6 33 53.05 32.6 53.05 31.4 52.45 28.3 49.45 26.2 46.9 24.4 45.4 24.2 Z"/>

<path fill="#1E0E0E" stroke="none" d="
M 45.95 54.45
Q 46.1 54.1 46.1 53.9 46.15 53.6 45.95 53.4 45.8 53.2 45.2 53.2
L 42.3 53.2
Q 41.85 53.55 42.1 54.05 42.55 54.9 43.55 56.15 43.85 56.55 44.2 56.6 44.55 56.65 44.95 56.1 45.5 55.35 45.95 54.45 Z"/>

<path fill="#C93C5A" stroke="none" d="
M 34.55 61.5
L 34.55 61.55
Q 34.3 63.4 35 65.25 35.7 67.1 37.1 68.35 38.05 69.2 39.15 69.5 40.4 69.85 41.35 69.4 42.05 69 42.6 68.2 43 67.6 43.4 66.55
L 45.85 60.95
Q 45.7 61.05 45.55 61.1 45 61.3 44.3 61.35 43.95 61.4 43.05 61.45 40.45 61.55 34.55 61.5 Z"/>

<path fill="#000000" stroke="none" d="
M 34.2 48.35
Q 33.2 48.35 32.55 49.05 31.85 49.75 31.85 50.7 31.85 51.65 32.55 52.35 33.2 53.05 34.2 53.05 35.15 53.05 35.85 52.35 36.55 51.65 36.55 50.7 36.55 49.75 35.85 49.05 35.15 48.35 34.2 48.35
M 35.75 49.9
Q 35.75 50.1 35.65 50.25 35.5 50.35 35.3 50.35 35.15 50.35 35 50.25 34.85 50.1 34.85 49.9 34.85 49.75 35 49.6 35.15 49.45 35.3 49.45 35.5 49.45 35.65 49.6 35.75 49.75 35.75 49.9
M 49.75 48.5
Q 49.3 47.95 48.75 47.95 48.15 47.95 47.75 48.5 47.35 49.1 47.35 49.9 47.35 50.7 47.75 51.25 48.15 51.8 48.75 51.8 49.3 51.8 49.75 51.25 50.15 50.7 50.15 49.9 50.15 49.1 49.75 48.5
M 49.7 48.85
Q 49.8 49 49.8 49.15 49.8 49.3 49.7 49.4 49.55 49.55 49.4 49.55 49.25 49.55 49.15 49.4 49.05 49.3 49.05 49.15 49.05 49 49.15 48.85 49.25 48.75 49.4 48.75 49.55 48.75 49.7 48.85 Z"/>

<path fill="#FFFFFF" stroke="none" d="
M 35.65 50.25
Q 35.75 50.1 35.75 49.9 35.75 49.75 35.65 49.6 35.5 49.45 35.3 49.45 35.15 49.45 35 49.6 34.85 49.75 34.85 49.9 34.85 50.1 35 50.25 35.15 50.35 35.3 50.35 35.5 50.35 35.65 50.25
M 49.8 49.15
Q 49.8 49 49.7 48.85 49.55 48.75 49.4 48.75 49.25 48.75 49.15 48.85 49.05 49 49.05 49.15 49.05 49.3 49.15 49.4 49.25 49.55 49.4 49.55 49.55 49.55 49.7 49.4 49.8 49.3 49.8 49.15 Z"/>
</g>

<path id="maomao_0_Layer0_0_1_STROKES" stroke="#000000" stroke-width="1" stroke-linejoin="round" stroke-linecap="round" fill="none" d="
M 33.25 22.85
Q 35.4 13.9 39.7 7.3 40.35 6.25 41.1 5.25 42.8 2.85 44.5 3.2 45.35 3.4 45.9 4.3 46.4 5.1 46.5 6.15 46.55 6.7 46.6 7.3 46.55 9.2 45.75 11.35 44.95 13.35 43.15 16.15 41 19.35 40.3 20.75 39 23.25 38.75 25.4
M 50.95 38.25
Q 51.1 39.2 51.15 40.2 51.2 41.65 50.15 42.7 50.3 43.8 50.4 45.05 50.7 48.4 50.95 52.35
M 51.1 54.65
Q 51.2 56.6 51.3 58.7 51.4 61.35 51.65 64.95
L 54.05 65.55
Q 54.75 65.95 56.9 67.7 59.05 69.45 59.25 71.85 59.4 72.75 58.8 74.05 58.2 75.35 56.05 75.4 53.7 74.65 54.7 72.5 54.85 72.15 55.15 71.85 54.9 71.7 54.05 70.55 53.55 70 53.3 69.65 52.5 69.5 51.9 69.5 52 71.15 52.05 71.45 52.55 79.4 51.45 83.4 50.65 86.4 48.5 88.65 47.75 89.4 46.85 90.1 50.85 89.05 56 89.2 58.35 89.25 60 89.6 62.1 90.1 63.55 91.2 65.2 92.4 65.8 94.45 66.35 96.55 65.2 98.55 50.15 97.45 35.1 98.25 34.9 97.25 34.85 96.85 34.85 96.5 34.85 96.15 34.9 95.8 34.95 95.2 35 94.55 35.05 94.3 31.75 94.6 27.5 94.5 27.5 95.9 27.45 96.85 27.4 97.8 27.45 98.4 16.55 98.4 5.7 99.55 4.9 98.45 4.5 97.35 4.2 96.25 4.5 95.2 4.75 94.2 5.5 93.35 6.25 92.55 7.2 92.05 8.05 91.55 9.2 91.25 10.05 91.05 11.3 90.9 12.45 90.75 13.45 90.65 12.3 89.75 11.25 88.6 10.6 89 9.8 89.1 8.6 89.25 7.45 88.9 6.35 88.55 5.5 87.85 4.6 87.05 4.2 86.05 3.75 84.95 3.95 83.75 4.2 82.55 5.05 81.85 5.95 81.1 7.2 81.2 7.65 81.25 8 81.35 7.95 81 7.9 80.65 7.5 77 7.75 73.1
L 6.05 73.6
Q 5.1 75.8 4.2 77.45 4.15 77.45 4.15 77.5 4.1 77.55 4.05 77.65 4.05 77.7 4 77.75 4.95 78.1 5.15 78.65 5.3 79.2 5.2 79.75 5.05 80.3 4.65 80.85 4.25 81.4 3.5 81.6 2.7 81.8 1.5 81.4 0.25 80.95 0.05 80.05 -0.2 79.1 0.4 76.4 0.95 73.7 2.75 70.05 6.2 67.7 8.25 66.4 8.35 63.55 7.95 59.4 7.5 54.75 7.3 52.4 7.2 51.75 7.2 51.1 6.8 50.55 6.45 50 6.3 47.65 6.5 45.45
M 10 34.35
Q 12.05 31.1 15.5 28.6 16.7 27.7 18 27.05
M 18 26.95
Q 16.65 20.55 16.8 16 16.95 11.1 18.7 7.3 19.15 6.3 19.7 5.4 20.85 3.55 22.4 2.25 24 0.8 25.9 0.2 27.2 -0.2 27.95 0.25 29.2 0.95 28.7 3.4 28.2 5.5 27.85 7.3 26.9 11.4 26.5 13.8 25.8 17.85 26 21.15
M 35.95 24.9
Q 35.55 24.8 35.15 24.75
M 19.4 59.4
Q 19.95 55.25 20.65 52.8 21.75 49.05 23.65 46.55 26.5 42.8 32.05 40.7 36.45 39.05 41.2 38.95 45.65 38.85 49.85 40.1 50 41.3 50.15 42.7
M 45.85 60.95
L 43.4 66.55
Q 43 67.6 42.6 68.2 42.05 69 41.35 69.4 40.4 69.85 39.15 69.5 38.05 69.2 37.1 68.35 35.7 67.1 35 65.25 34.3 63.4 34.55 61.55
L 34.55 61.5
Q 40.45 61.55 43.05 61.45 43.95 61.4 44.3 61.35 45 61.3 45.55 61.1 45.7 61.05 45.85 60.95 46.15 60.8 46.35 60.55 46.75 60.2 46.75 59.75 46.75 59.4 46.55 59.15 46.35 58.9 46.05 58.75 45.75 58.65 45.45 58.8 45.1 58.9 44.9 59.15
M 19.4 59.4
Q 19.85 59.55 20.15 59.9 20.8 60.5 20.7 61.8 20.7 62.65 20.45 64.2 20.35 65 20.2 65.45 20 66.05 19.65 66.5 19.4 66.75 19.05 67 19.05 67.7 19 68.95 18.95 70.05 18.9 70.35 18.8 70.8 18.5 71.6 18.3 72.15 18 72.4 17.6 72.8 16.95 72.85 16.5 72.85 15.75 72.7 15 72.6 14.8 72.25 14.7 72.05 14.7 71.75 14.7 71.35 14.8 70.55 14.9 69.75 14.9 69.35 14.9 68.3 14.6 67.65 13.3 67.15 12.65 65.85 12.05 64.55 12.05 63.1 12.05 61.6 12.95 60.75 13.85 59.9 14.9 59.65 14.65 58.85 13.95 58.05 13.5 57.6 12.2 56.5 9.35 54.1 7.2 51.1
M 18.6 61.4
L 18.6 61.35
Q 18.4 61 17.85 60.8 16.9 60.45 15.8 60.6 14.7 60.75 13.95 61.35 13.65 61.75 13.4 62.55 13.15 63.35 13.2 63.95 13.3 64.5 13.5 64.9 13.7 65.3 14.05 65.55 14.4 65.75 14.95 65.85 15.95 66.05 16.6 65.95 17.5 65.85 18 65.2 18.15 65 18.3 64.65 18.2 64.6 18.2 64.65
L 17.95 64.05
Q 17.65 63.35 17.85 62.75 17.95 62.25 18.6 61.4 18.65 61.55 18.65 61.7 18.65 61.85 18.65 62.1 18.6 62.8 18.5 63.3 18.5 64.1 18.3 64.65
M 14.9 59.65
Q 16.05 59.3 17.6 59.2 18.45 59.15 19 59.25 19.2 59.3 19.4 59.4
M 8.25 66.4
L 10.1 65.35
M 19.05 67
Q 18.55 67.35 17.75 67.55 16.25 68 15.1 67.8 14.85 67.75 14.6 67.65
M 7.75 73.1
Q 9.25 72.6 11.25 71.85 11.9 71.6 12.2 71.45
M 3.65 78.55
Q 3.8 78.15 4 77.75
M 8 81.35
Q 8.6 85.35 10.7 88 11 88.3 11.25 88.6
M 13.45 90.65
Q 16.5 90.5 18.9 91.1 20.05 91.4 21.15 91.9 21.8 92.2 22.4 92.55 23.65 93.35 24.6 94.35 24.8 94.35 24.95 94.35 26.25 94.45 27.5 94.5
M 24.6 94.35
Q 24.95 94.7 25.2 94.95 25.4 95.1 25.55 95.2
M 35.05 94.3
Q 36.8 94.1 38.25 93.8 39.3 93.55 40.35 93.25 42.95 91.15 46.75 90.15
L 46.75 90.1 46.85 90.1
M 38.9 94.55
Q 39.6 93.85 40.35 93.25
M 51.9 69.5
Q 51.8 67.65 51.65 64.95
M 55.15 71.85
Q 55.95 71.4 56.2 71.85"/>

<path id="maomao_0_Layer0_0_2_STROKES" stroke="#740639" stroke-width="1" stroke-linejoin="round" stroke-linecap="round" fill="none" d="
M 38.75 25.4
Q 38.8 25.45 38.85 25.5 39.9 24.2 41.6 22.9 42.2 22.6 42.9 22.5 43 22.45 43.1 22.45 44.2 22.3 45.45 22.65 47 23.05 49 24.2 51.2 25.5 52.85 27.4 54.45 29.3 54.55 31.65 54.55 32.05 54.5 32.4 54.55 32.7 54.1 34.35 53.7 35.9 52.1 37.85 51.45 38.1 50.95 38.25
M 6.5 45.45
Q 6.35 45.7 6.25 45.95 6.05 46.3 5.85 46.35 5.55 46.4 5.4 45.9 4.65 43.65 5.55 41 6.3 38.8 8.1 36.5 9 35.4 10 34.35
M 18 26.95
L 18 27.05
M 26 21.15
Q 27.95 21 29.9 21.45 31.8 21.85 33.25 22.85 34.35 23.65 35.15 24.75
M 35.95 24.9
Q 36.95 24.7 37.55 24.8 38.1 24.9 38.55 25.25 38.65 25.3 38.75 25.4
M 42.9 22.5
Q 42.25 22.65 41.7 23.25 41.15 23.9 40.95 24.7 40.8 25.55 40.95 26.55 41.1 27.2 41.35 27.95 42.35 30.6 44.5 32.55 46.7 34.5 49.4 35.25 49.75 35.35 50.1 35.4 51.8 35.7 52.9 35.1 53.75 34.6 54.2 33.6 54.45 33.05 54.5 32.4
M 38.5 29.6
Q 38.8 30.45 39.3 31.2 40.05 32.5 41.4 33.95 42.5 35.15 43.25 35.8 44.4 36.75 45.45 37.2 46.4 37.6 47.95 38.05 49.45 38.5 50.4 38.35 50.65 38.35 50.95 38.25
M 26 21.15
Q 24.4 21.25 22.75 21.75 21.95 22 20.5 23.2 19 24.35 18.45 25.7 17.9060546875 27.0353515625 18.05 26.9
L 18 26.95
M 18 27.05
Q 17.7 27.9 17.95 29.7 18.15 31.65 20.05 33 21.9 34.35 25.05 34.85 28.2 35.35 30.65 34.4 33.15 33.5 34.15 32.3 35.2 31.1 35.75 29.9 36.35 28.7 36.25 27.55 36.2 27.05 36.1 26.6 35.9 26.1 35.7 25.5 35.5 25.25 35.35 25.05 35.25 24.9 35.15 24.75
M 18 27.05
Q 17.55 27.9 17.3 28.65 17.35 28.65 17.4 28.6 17.15 30.15 17.6 31.65 18.05 33.1 18.95 34.2 19 34.25 19.05 34.35
L 18.25 35.15
Q 18.95 35.95 20.05 36.65 21.9 37.75 24.2 38.1 26.45 38.5 28.9 38.05 31.35 37.6 33.1 36.5 34.8 35.4 35.55 34.25 36.35 33.1 36.7 30.85 36.75 30.3 36.75 29.8 36.75 29.2 36.65 28.65 36.55 27.9 36.1 26.6
M 6.5 45.45
Q 7.2 44.2 8.45 42.95 9.4 42.05 11.35 40.45
L 18.25 35.15
M 17.3 28.65
Q 13.05 31.2 10 34.35
M 38.85 25.5
Q 38.95 25.6 39.05 25.75 39.15 25.9 39.25 26.05 39.5 26.7 39.65 27.2 39.85 27.7 39.95 28.25 40.05 28.75 40.05 29 40.05 29.35 39.95 29.7 39.95 29.8 39.9 29.85 39.85 29.9 39.75 29.9 39.15 29.6 38.5 29.6 38.15 29.6 37.7 29.65 37.1 29.7 36.85 29.75 36.8 29.8 36.75 29.8
M 35.35 25.05
Q 35.7 24.95 35.95 24.9"/>

<path id="maomao_0_Layer0_0_3_STROKES" stroke="#911F54" stroke-width="1" stroke-linejoin="round" stroke-linecap="round" fill="none" d="
M 45.4 24.2
Q 43.7 24 43.25 24.6 42.85 25.2 43.1 26.75 43.2 27.35 43.45 27.95 43.8 28.9 44.6 29.85 45.8 31.4 47.5 32.4 48.15 32.75 48.7 33 49.65 33.45 50.45 33.6 51.65 33.8 52.6 33 53.05 32.6 53.05 31.4 52.45 28.3 49.45 26.2 46.9 24.4 45.4 24.2 Z
M 19.9 27.2
Q 19.6 28.8 20.4 30 20.75 30.65 21.5 31.15 22.05 31.55 22.9 31.95 25.95 33.25 28.65 32.7 30.15 32.4 31.35 31.6 32.65 30.75 33.35 29.5 33.8 28.75 34 28.1 34.2 27.4 33.9 26.25 33.7 25.4 32.65 24.5 32.35 24.2 32 23.95 30.35 22.75 28.35 22.55 27.25 22.45 26.15 22.5 25.25 22.6 24.35 22.75 22.35 23.15 21.25 24.55 20.75 25.25 20.4 25.95 20.05 26.6 19.9 27.2 Z"/>
</defs>

<g transform="matrix( 1, 0, 0, 1, 1.25,1.25) ">
<g transform="matrix( 1, 0, 0, 1, 0,0) ">
<use xlink:href="#maomao_0_Layer0_0_FILL"/>

<use xlink:href="#maomao_0_Layer0_0_1_STROKES"/>

<use xlink:href="#maomao_0_Layer0_0_2_STROKES"/>

<use xlink:href="#maomao_0_Layer0_0_3_STROKES"/>
</g>
</g>
</svg>
