
<svg xmlns="http://www.w3.org/2000/svg" version="1.1" xmlns:xlink="http://www.w3.org/1999/xlink" preserveAspectRatio="none" x="0px" y="0px" width="87px" height="86px" viewBox="0 0 87 86">
<defs>
<g id="Layer0_0_FILL">
<path fill="#F76122" stroke="none" d="
M 68.2 71.85
Q 68.155859375 71.894140625 68.1 71.9 68.15 71.89375 68.15 71.85 66.35 71.7 64.55 72.25 62.6 72.75 60.5 74 59.4 74.7 57.8 75.85 57.35 76.2 56.85 76.55 57.35 76.2 57.8 75.85 52.3 76.75 46.95 76.95 46.95 77.05 46.9 77.15 46.7 78.4 47 80.55 47.15 80.6 47.25 80.65 53.85 82.75 63.7 82.8 73.45 82.85 75.1 80.85 75.15 78.95 74.75 77.35 74.2 75.2 72.85 73.85 71.3 72.35 68.95 71.95 68.55 71.9 68.2 71.85
M 26.35 73.45
Q 24.15 72.9 22.05 73.25 19.8 73.65 18 74.95 17.9 75.05 17.75 75.15 16.1 76.4 15.2 78.25 16.1 76.4 17.75 75.15 15.7 74.7 13.9 74.15 12.6 77.8 12.5 81.75 16.8 83.1 22.05 83.8 27.3 84.45 29.85 84.05 32.4 83.65 33.3 83.05 34.15 82.45 34.2 81.85 34.2 81.75 34.2 81.65 34.3 79.85 33.2 78.1 32.65 77.25 31.9 76.5 31.4 76 30.8 75.55 30.6 75.4 30.3 75.2 28.45 73.95 26.35 73.45
M 62.25 10.25
Q 61.7 9.85 61.15 9.45 60.2 8.8 59.25 8.25 57.9 7.45 56.45 6.85 54.65 6.1 52.75 5.65 51.65 5.35 50.45 5.15 43.7 3.95 35.15 4.05 30.2 4.4 26.45 5 26.7 5.55 26.85 6.2 27 6.85 27.1 7.95 27.15 8.05 27.15 8.2 27.2 8.25 27.15 8.35 27.15 8.15 27.1 7.95 27 6.85 26.85 6.2 26.7 5.55 26.45 5 26.3 4.6 26.1 4.2 25.1 2.45 23 1.8 20.9 1.15 19.05 2 17.65 2.7 16.65 4.15 15.75 5.5 15.4 7.15 15.3 7.75 15.2 8.35 15.1 9.3 15.1 10.4 15.15 11.5 15.4 13.6 15.15 11.5 15.1 10.4 15.1 9.3 15.2 8.35 11.7 10.15 9.3 12.8 5 17.6 3.6 26.05 3.05 29.1 2.75 33.6 2.6 36.15 2.3 41.2 2.1 44.4 1.55 50.75 1.3 56.25 2.1 60.2 3.05 65.2 6.1 68.85 8.7 72 11.35 73.2 11.4 73.2 11.45 73.2 12.6 73.7 13.9 74.15 15.7 74.7 17.75 75.15 17.9 75.05 18 74.95 19.8 73.65 22.05 73.25 24.15 72.9 26.35 73.45 28.45 73.95 30.3 75.2 30.6 75.4 30.8 75.55 29.75 73.4 29.75 70.8 29.75 67.4 31.5 64.75 33 62.45 35.75 60.75 37.85 59.4 41.15 58.15 47.35 55.8 53 55.2 59.55 54.5 65.05 56.15 68.95 57.35 70.35 59.6 71.85 62.05 70.8 66 69.95 69.2 68.15 71.85
L 68.2 71.85
Q 68.4 71.65 68.6 71.5 70.65 69.45 71.7 66.25 72.55 63.5 72.65 60.1 72.7 57.5 72.3 55.55 72 54.1 71.45 52.9 71.25 52.5 71 52.1 70.8 51.75 70.6 51.4 70.8 51.75 71 52.1 71.4 47.2 71.6 43.65 71.75 41.05 71.8 38.95 71.9 34.7 71.6 31.15 71.55 31.8 70.7 32.25 69.85 32.75 68.7 32.8 67.5 32.85 66.7 32.5 65.9 32.1 65.95 31.5 65.95 30.85 66.8 30.35 67.65 29.9 68.85 29.85 70 29.75 70.8 30.15 71.5 30.5 71.6 31 71.55 30.35 71.45 29.7 71 25.55 69.4 20.75 67.25 14.2 62.25 10.25
M 57.55 29.6
Q 58.9 29.3 59.85 29.5 60.4 29.65 60.85 30.1 61.3 30.55 61.35 31.15 61.4 31.7 61.05 32.45 60.35 33.9 59.15 34.9 59.15 34.95 59.15 35 59.45 35.65 59.65 36.65 59.8 37.35 59.9 38.5 60.1 44 58.45 49.95 58.9 49.9 59.4 49.85 63.05 49.4 65 47.9 67.35 46.05 68.15 42.45 68.5 41.05 68.55 39.25 68.6 38.25 68.4 35.9 67.95 35.65 67.15 35.1 67.95 35.65 68.4 35.9 68.85 36.2 69.1 36.35 69.3 36.45 69.6 36.5 69.3 36.45 69.1 36.35 68.85 36.2 68.4 35.9 68.6 38.25 68.55 39.25 68.5 41.05 68.15 42.45 67.35 46.05 65 47.9 63.05 49.4 59.4 49.85 58.9 49.9 58.45 49.95 55.65 50.25 53.15 49.9 49.85 49.45 47.4 47.85 44.7 46.1 43.5 43.1 42.45 40.5 42.45 37.5 41.8 37.75 41 37.85 41.8 37.75 42.45 37.5 42.8 37.35 43.1 37.2 43.8 36.85 44.05 36.55 43.8 36.85 43.1 37.2 42.8 37.35 42.45 37.5 42.45 40.5 43.5 43.1 44.7 46.1 47.4 47.85 49.85 49.45 53.15 49.9 55.65 50.25 58.45 49.95 60.1 44 59.9 38.5 59.8 37.35 59.65 36.65 59.45 35.65 59.15 35 59.1 35 59.05 35 58.65 34.9 58.35 34.65 57.3 33.75 56.65 32.95 55.8 31.9 55.75 31.05 55.8 30.8 55.9 30.6 56.05 30.3 56.4 30.05 56.8 29.8 57.55 29.6
M 41.25 27.3
Q 41.85 26.7 42.7 26.7 43.55 26.7 44.15 27.3 44.75 27.9 44.75 28.75 44.75 29.6 44.15 30.2 43.55 30.8 42.7 30.8 41.85 30.8 41.25 30.2 40.65 29.6 40.65 28.75 40.65 27.9 41.25 27.3
M 43.35 31.85
Q 45.05 32.25 45.15 33.05 45.25 33.85 43.7 34.6 42.15 35.35 39.85 35.6 37.55 35.9 35.85 35.5 34.15 35.15 34.05 34.35 33.95 33.55 35.5 32.8 37.1 32.05 39.4 31.8 41.7 31.5 43.35 31.85
M 67.85 26.15
Q 68.3 26.6 68.3 27.2 68.3 27.8 67.85 28.25 67.45 28.7 66.8 28.7 66.2 28.7 65.75 28.25 65.35 27.8 65.35 27.2 65.35 26.6 65.75 26.15 66.2 25.7 66.8 25.7 67.45 25.7 67.85 26.15
M 24.05 8.35
L 24.75 10.7
Q 24.25 11.05 23.65 11.45 22.8 11.9 21.25 12.6 20.65 12.85 20.5 12.9 20.35 12.1 20.2 11.65 20.1 11.25 20.05 10.45 19.95 9.45 20.05 8.9 20.15 8.2 20.55 7.6 20.9 7 21.3 6.65 21.8 6.25 22.35 6.25 23 6.35 23.5 7.05 23.65 7.3 23.8 7.7 23.85 7.7 24.05 8.35
M 33.25 54.45
Q 33.25 55.05 32.75 55.5 32.25 55.95 32 56.1 32.2 56.1 32.95 56.5 33.7 56.85 34 57.1 34.3 57.35 34.5 57.8 34.65 58.3 34.4 58.8 34.15 59.3 31.7 58.75 32.75 59.75 33.05 60.2 33.3 60.65 33.05 61.05 32.85 61.4 32.25 61.45 31.05 61.6 29.6 60.7 30.05 61.45 29.9 61.75 29.75 62.05 29.45 62.1 29.05 62.15 28.3 61.85 24.55 60.05 23.7 57.3 22.4 56.35 21.3 55.15 19.85 53.55 18.9 51.65 17.95 49.85 18 48.45 17.95 49.85 18.9 51.65 19.85 53.55 21.3 55.15 22.4 56.35 23.7 57.3 24.55 60.05 28.3 61.85 29.05 62.15 29.45 62.1 29.75 62.05 29.9 61.75 30.05 61.45 29.6 60.7 31.05 61.6 32.25 61.45 32.85 61.4 33.05 61.05 33.3 60.65 33.05 60.2 32.75 59.75 31.7 58.75 34.15 59.3 34.4 58.8 34.65 58.3 34.5 57.8 34.3 57.35 34 57.1 33.7 56.85 32.95 56.5 32.2 56.1 32 56.1 31.6 56 31.05 55.75 31.6 56 32 56.1 32.25 55.95 32.75 55.5 33.25 55.05 33.25 54.45 33.25 54.15 33.2 53.95 32.95 53.35 31.35 53.85 30.15 54.3 29.5 54.35 29.35 54.3 29.2 54.3 29.15 54.25 29.1 54.2 27.8 53.05 26.95 51 26.25 49.3 26 46.8 26.25 49.3 26.95 51 27.8 53.05 29.1 54.2 29.15 54.25 29.2 54.3 29.35 54.3 29.5 54.35 30.15 54.3 31.35 53.85 32.95 53.35 33.2 53.95 33.25 54.15 33.25 54.45
M 61.15 9.45
Q 61.2 9.3 61.25 9.15 61.6 7.75 61.5 6.45 61.4 4.85 60.55 3.7 59.8 2.7 58.5 2.25 57.25 1.8 56 2.1 54.8 2.4 53.85 3.4 53 4.35 52.75 5.65 54.65 6.1 56.45 6.85 56.55 6.5 56.75 6.25 57.05 5.75 57.55 5.6 57.95 5.45 58.45 5.55 58.7 5.6 58.95 5.8 59.25 5.95 59.4 6.35 59.55 6.7 59.55 7.15 59.5 7.6 59.25 8.25 60.2 8.8 61.15 9.45
M 82.45 52.25
Q 82.8 52 82.95 51.7 83.2 51.35 83.25 51 83.3 50.6 83.1 50.3 82.85 49.8 82.1 49.75 81.55 49.65 80.85 49.9 79.85 50.2 79.15 50.2 77.55 48.3 75.75 46.75 73.95 45.2 71.6 43.65 71.4 47.2 71 52.1 71.25 52.5 71.45 52.9 72 53.3 72.85 53.85 73.75 54.45 74.75 55 75.8 55.55 75.85 55.6 76 56 76.3 56.45 76.6 56.9 77.25 57.65 78.5 59.05 79.85 60.05 80.45 60.55 80.85 60.45 81.6 60.3 81.55 58.9 82.55 59.3 83.65 59.05 84.15 58.9 84.3 58.6 84.55 58.2 84.05 57.55 83.8 57.25 83.7 57.1 83.5 56.85 83.45 56.6 84.1 56.55 84.45 56.4 85.05 56.2 85.25 55.8 85.55 55.25 85.2 54.6 84.85 54 84.2 53.7 83.9 53.55 83 53.25 82.2 53 81.85 52.7 82.3 52.35 82.45 52.25
M 81.65 54.7
Q 81.6 54.85 81.5 55.35 81.45 55.85 80.75 56.75 80.05 57.65 79.15 57.5 78.15 57.45 77.55 56.6 77.3 56.25 77.25 55.85 77.2 55.6 77.25 55.3 77.35 54.55 77.85 53.9 78.55 53 79.6 52.85 80 52.8 80.3 52.95 80.6 53.1 80.9 53.35 81.45 53.9 81.65 54.7 Z"/>

<path fill="#F7AC8D" stroke="none" d="
M 35.75 60.75
Q 33 62.45 31.5 64.75 29.75 67.4 29.75 70.8 29.75 73.4 30.8 75.55 31.4 76 31.9 76.5 36.7 76.9 41.5 76.95 41.8 76.95 42.15 76.95 44.55 77 46.95 76.95 52.3 76.75 57.8 75.85 59.4 74.7 60.5 74 62.6 72.75 64.55 72.25 66.35 71.7 68.15 71.85 69.95 69.2 70.8 66 71.85 62.05 70.35 59.6 68.95 57.35 65.05 56.15 59.55 54.5 53 55.2 47.35 55.8 41.15 58.15 37.85 59.4 35.75 60.75
M 58.95 5.8
Q 58.7 5.6 58.45 5.55 57.95 5.45 57.55 5.6 57.05 5.75 56.75 6.25 56.55 6.5 56.45 6.85 57.9 7.45 59.25 8.25 59.5 7.6 59.55 7.15 59.55 6.7 59.4 6.35 59.25 5.95 58.95 5.8
M 24.75 10.7
L 24.05 8.35
Q 23.85 7.7 23.8 7.7 23.65 7.3 23.5 7.05 23 6.35 22.35 6.25 21.8 6.25 21.3 6.65 20.9 7 20.55 7.6 20.15 8.2 20.05 8.9 19.95 9.45 20.05 10.45 20.1 11.25 20.2 11.65 20.35 12.1 20.5 12.9 20.65 12.85 21.25 12.6 22.8 11.9 23.65 11.45 24.25 11.05 24.75 10.7
M 81.5 55.35
Q 81.6 54.85 81.65 54.7 81.45 53.9 80.9 53.35 80.6 53.1 80.3 52.95 80 52.8 79.6 52.85 78.55 53 77.85 53.9 77.35 54.55 77.25 55.3 77.2 55.6 77.25 55.85 77.3 56.25 77.55 56.6 78.15 57.45 79.15 57.5 80.05 57.65 80.75 56.75 81.45 55.85 81.5 55.35 Z"/>

<path fill="#FF4D4D" stroke="none" d="
M 71.6 31.15
Q 71.6 31.05 71.6 31 71.5 30.5 70.8 30.15 70 29.75 68.85 29.85 67.65 29.9 66.8 30.35 65.95 30.85 65.95 31.5 65.9 32.1 66.7 32.5 67.5 32.85 68.7 32.8 69.85 32.75 70.7 32.25 71.55 31.8 71.6 31.15
M 45.15 33.05
Q 45.05 32.25 43.35 31.85 41.7 31.5 39.4 31.8 37.1 32.05 35.5 32.8 33.95 33.55 34.05 34.35 34.15 35.15 35.85 35.5 37.55 35.9 39.85 35.6 42.15 35.35 43.7 34.6 45.25 33.85 45.15 33.05 Z"/>

<path fill="#000000" stroke="none" d="
M 68.3 27.2
Q 68.3 26.6 67.85 26.15 67.45 25.7 66.8 25.7 66.2 25.7 65.75 26.15 65.35 26.6 65.35 27.2 65.35 27.8 65.75 28.25 66.2 28.7 66.8 28.7 67.45 28.7 67.85 28.25 68.3 27.8 68.3 27.2
M 67.85 26.45
Q 67.95 26.55 67.95 26.7 67.95 26.85 67.85 26.95 67.75 27.05 67.6 27.05 67.45 27.05 67.35 26.95 67.25 26.85 67.25 26.7 67.25 26.55 67.35 26.45 67.45 26.3 67.6 26.3 67.75 26.3 67.85 26.45
M 42.7 26.7
Q 41.85 26.7 41.25 27.3 40.65 27.9 40.65 28.75 40.65 29.6 41.25 30.2 41.85 30.8 42.7 30.8 43.55 30.8 44.15 30.2 44.75 29.6 44.75 28.75 44.75 27.9 44.15 27.3 43.55 26.7 42.7 26.7
M 43.8 27.55
Q 44 27.55 44.15 27.7 44.25 27.85 44.25 28.05 44.25 28.25 44.15 28.4 44 28.55 43.8 28.55 43.6 28.55 43.45 28.4 43.3 28.25 43.3 28.05 43.3 27.85 43.45 27.7 43.6 27.55 43.8 27.55 Z"/>

<path fill="#FFFFFF" stroke="none" d="
M 67.95 26.7
Q 67.95 26.55 67.85 26.45 67.75 26.3 67.6 26.3 67.45 26.3 67.35 26.45 67.25 26.55 67.25 26.7 67.25 26.85 67.35 26.95 67.45 27.05 67.6 27.05 67.75 27.05 67.85 26.95 67.95 26.85 67.95 26.7
M 44.15 27.7
Q 44 27.55 43.8 27.55 43.6 27.55 43.45 27.7 43.3 27.85 43.3 28.05 43.3 28.25 43.45 28.4 43.6 28.55 43.8 28.55 44 28.55 44.15 28.4 44.25 28.25 44.25 28.05 44.25 27.85 44.15 27.7 Z"/>

<path fill="#1E0E0E" stroke="none" d="
M 59.05 35
Q 59.1 35 59.15 35 59.15 34.95 59.15 34.9 59.1 34.95 59.05 35
M 59.85 29.5
Q 58.9 29.3 57.55 29.6 56.8 29.8 56.4 30.05 56.05 30.3 55.9 30.6 55.8 30.8 55.75 31.05 55.8 31.9 56.65 32.95 57.3 33.75 58.35 34.65 58.65 34.9 59.05 35 59.1 34.95 59.15 34.9 60.35 33.9 61.05 32.45 61.4 31.7 61.35 31.15 61.3 30.55 60.85 30.1 60.4 29.65 59.85 29.5 Z"/>
</g>

<path id="Layer0_0_1_STROKES" stroke="#000000" stroke-width="1" stroke-linejoin="round" stroke-linecap="round" fill="none" d="
M 71.6 31.15
Q 71.9 34.7 71.8 38.95 71.75 41.05 71.6 43.65 73.95 45.2 75.75 46.75 77.55 48.3 79.15 50.2 79.85 50.2 80.85 49.9 81.55 49.65 82.1 49.75 82.85 49.8 83.1 50.3 83.3 50.6 83.25 51 83.2 51.35 82.95 51.7 82.8 52 82.45 52.25 82.3 52.35 81.85 52.7 82.2 53 83 53.25 83.9 53.55 84.2 53.7 84.85 54 85.2 54.6 85.55 55.25 85.25 55.8 85.05 56.2 84.45 56.4 84.1 56.55 83.45 56.6 83.5 56.85 83.7 57.1 83.8 57.25 84.05 57.55 84.55 58.2 84.3 58.6 84.15 58.9 83.65 59.05 82.55 59.3 81.55 58.9 81.6 60.3 80.85 60.45 80.45 60.55 79.85 60.05 78.5 59.05 77.25 57.65 76.6 56.9 76.3 56.45 76 56 75.85 55.6 75.8 55.55 74.75 55 73.75 54.45 72.85 53.85 72 53.3 71.45 52.9 72 54.1 72.3 55.55 72.7 57.5 72.65 60.1 72.55 63.5 71.7 66.25 70.65 69.45 68.6 71.5 68.4 71.65 68.2 71.85 68.55 71.9 68.95 71.95 71.3 72.35 72.85 73.85 74.2 75.2 74.75 77.35 75.15 78.95 75.1 80.85 73.45 82.85 63.7 82.8 53.85 82.75 47.25 80.65 47.15 80.6 47 80.55 46.7 78.4 46.9 77.15 46.95 77.05 46.95 76.95 44.55 77 42.15 76.95 41.8 76.95 41.5 76.95 36.7 76.9 31.9 76.5 32.65 77.25 33.2 78.1 34.3 79.85 34.2 81.65 34.2 81.75 34.2 81.85 34.15 82.45 33.3 83.05 32.4 83.65 29.85 84.05 27.3 84.45 22.05 83.8 16.8 83.1 12.5 81.75 12.6 77.8 13.9 74.15 12.6 73.7 11.45 73.2 11.4 73.2 11.35 73.2 8.7 72 6.1 68.85 3.05 65.2 2.1 60.2 1.3 56.25 1.55 50.75 2.1 44.4 2.3 41.2 2.6 36.15 2.75 33.6 3.05 29.1 3.6 26.05 5 17.6 9.3 12.8 11.7 10.15 15.2 8.35 15.3 7.75 15.4 7.15 15.75 5.5 16.65 4.15 17.65 2.7 19.05 2 20.9 1.15 23 1.8 25.1 2.45 26.1 4.2 26.3 4.6 26.45 5 30.2 4.4 35.15 4.05 43.7 3.95 50.45 5.15 51.65 5.35 52.75 5.65 53 4.35 53.85 3.4 54.8 2.4 56 2.1 57.25 1.8 58.5 2.25 59.8 2.7 60.55 3.7 61.4 4.85 61.5 6.45 61.6 7.75 61.25 9.15 61.2 9.3 61.15 9.45 61.7 9.85 62.25 10.25 67.25 14.2 69.4 20.75 71 25.55 71.45 29.7 71.55 30.35 71.6 31 71.6 31.05 71.6 31.15 Z
M 61.15 9.45
Q 60.2 8.8 59.25 8.25 57.9 7.45 56.45 6.85 54.65 6.1 52.75 5.65
M 59.15 35
Q 59.1 35 59.05 35 58.65 34.9 58.35 34.65 57.3 33.75 56.65 32.95 55.8 31.9 55.75 31.05 55.8 30.8 55.9 30.6 56.05 30.3 56.4 30.05 56.8 29.8 57.55 29.6 58.9 29.3 59.85 29.5 60.4 29.65 60.85 30.1 61.3 30.55 61.35 31.15 61.4 31.7 61.05 32.45 60.35 33.9 59.15 34.9 59.15 34.95 59.15 35 59.45 35.65 59.65 36.65 59.8 37.35 59.9 38.5 60.1 44 58.45 49.95 58.9 49.9 59.4 49.85 63.05 49.4 65 47.9 67.35 46.05 68.15 42.45 68.5 41.05 68.55 39.25 68.6 38.25 68.4 35.9 67.95 35.65 67.15 35.1
M 59.15 34.9
Q 59.1 34.95 59.05 35
M 41 37.85
Q 41.8 37.75 42.45 37.5 42.8 37.35 43.1 37.2 43.8 36.85 44.05 36.55
M 42.45 37.5
Q 42.45 40.5 43.5 43.1 44.7 46.1 47.4 47.85 49.85 49.45 53.15 49.9 55.65 50.25 58.45 49.95
M 68.4 35.9
Q 68.85 36.2 69.1 36.35 69.3 36.45 69.6 36.5
M 27.1 7.95
Q 27.15 8.15 27.15 8.35 27.2 8.25 27.15 8.2 27.15 8.05 27.1 7.95 27 6.85 26.85 6.2 26.7 5.55 26.45 5
M 15.4 13.6
Q 15.15 11.5 15.1 10.4 15.1 9.3 15.2 8.35
M 26 46.8
Q 26.25 49.3 26.95 51 27.8 53.05 29.1 54.2 29.15 54.25 29.2 54.3 29.35 54.3 29.5 54.35 30.15 54.3 31.35 53.85 32.95 53.35 33.2 53.95 33.25 54.15 33.25 54.45 33.25 55.05 32.75 55.5 32.25 55.95 32 56.1 32.2 56.1 32.95 56.5 33.7 56.85 34 57.1 34.3 57.35 34.5 57.8 34.65 58.3 34.4 58.8 34.15 59.3 31.7 58.75 32.75 59.75 33.05 60.2 33.3 60.65 33.05 61.05 32.85 61.4 32.25 61.45 31.05 61.6 29.6 60.7 30.05 61.45 29.9 61.75 29.75 62.05 29.45 62.1 29.05 62.15 28.3 61.85 24.55 60.05 23.7 57.3 22.4 56.35 21.3 55.15 19.85 53.55 18.9 51.65 17.95 49.85 18 48.45
M 31.05 55.75
Q 31.6 56 32 56.1
M 13.9 74.15
Q 15.7 74.7 17.75 75.15 17.9 75.05 18 74.95 19.8 73.65 22.05 73.25 24.15 72.9 26.35 73.45 28.45 73.95 30.3 75.2 30.6 75.4 30.8 75.55
M 68.15 71.85
L 68.2 71.85
Q 68.155859375 71.894140625 68.1 71.9 68.15 71.89375 68.15 71.85 66.35 71.7 64.55 72.25 62.6 72.75 60.5 74 59.4 74.7 57.8 75.85 57.35 76.2 56.85 76.55
M 15.2 78.25
Q 16.1 76.4 17.75 75.15
M 30.8 75.55
Q 31.4 76 31.9 76.5
M 71.45 52.9
Q 71.25 52.5 71 52.1 70.8 51.75 70.6 51.4
M 46.95 76.95
Q 52.3 76.75 57.8 75.85
M 71.6 43.65
Q 71.4 47.2 71 52.1"/>
</defs>

<g transform="matrix( 1, 0, 0, 1, 0,0) ">
<use xlink:href="#Layer0_0_FILL"/>

<use xlink:href="#Layer0_0_1_STROKES"/>
</g>
</svg>
